<svg width="1440" height="1023" viewBox="0 0 1440 1023" fill="none" xmlns="http://www.w3.org/2000/svg">
<path d="M1125.89 527.48C1111.2 514.067 1090.81 502.219 1065.16 492.79C1008.6 471.98 939.035 462.785 882.55 441.882C832.663 423.421 792.684 398.125 754.452 373.822C708.496 344.6 642.953 322.447 567.087 332.227C493.636 341.691 450.691 374.231 438.369 410.557C427.058 443.892 442.576 475.684 480.118 503.446C518.189 531.593 571.248 553.898 615.296 579.463C659.436 605.074 699.806 632.707 727.072 663.986C762.338 704.459 795.787 754.024 884.366 771.421C928.483 780.079 978.347 776.679 1015.25 761.501C1066.26 740.528 1087.16 708.853 1108.9 678.614C1143.04 631.177 1177.71 574.789 1125.89 527.48Z" stroke="#FAEFE6" stroke-miterlimit="10"/>
<path d="M608.103 367.372C542.56 375.188 503.156 403.394 492.512 435.654C489.914 443.494 489.086 451.287 489.914 458.964C492.098 479.668 506.122 499.718 530.537 518.003C563.09 542.225 608.287 561.609 646.082 583.657C673.922 599.909 700.13 617.05 721.58 635.604C729.281 642.276 736.385 649.123 742.707 656.18C773.927 690.835 803.813 732.91 879.679 747.818C918.853 755.542 962.924 752.738 996.098 739.394C1041.07 721.214 1059.69 693.826 1078.15 667.502C1082.19 661.73 1086.19 655.794 1089.96 649.754C1113.23 612.75 1128.06 571.598 1088.88 536.137C1076.26 524.663 1058.86 514.51 1037.07 506.366C988.994 488.396 929.98 480.123 881.817 462.142C839.24 446.24 805.009 424.624 771.973 404.001C731.074 378.507 673.623 359.555 608.103 367.372Z" stroke="#FAEFE6" stroke-miterlimit="10"/>
<path d="M649.068 402.53C591.387 408.687 555.57 432.57 546.604 460.763C544.42 467.563 543.891 474.364 544.81 481.105C547.201 498.807 559.478 516.403 580.881 532.586C607.779 552.939 645.275 569.332 676.816 587.875C700.036 601.522 721.991 615.87 740.199 631.305C746.751 636.855 752.82 642.545 758.291 648.387C785.488 677.235 811.765 711.797 874.917 724.24C909.172 731.017 947.495 728.856 976.876 717.312C1015.87 701.982 1032.17 678.836 1047.29 656.414C1050.6 651.483 1053.82 646.412 1056.83 641.26C1075.18 609.888 1085.55 575.034 1051.78 544.819C1041.22 535.296 1026.81 526.825 1008.88 519.967C969.289 504.836 920.804 497.487 880.963 482.437C845.698 469.094 817.168 451.171 789.35 434.217C753.601 412.414 704.22 396.653 649.068 402.53Z" stroke="#FAEFE6" stroke-miterlimit="10"/>
<path d="M690.062 437.687C640.22 442.15 608.012 461.756 600.724 485.872C598.977 491.632 598.701 497.439 599.736 503.246C602.334 517.945 612.932 533.076 631.232 547.155C652.589 563.595 682.268 577.043 707.557 592.093C726.155 603.146 743.88 614.69 758.846 627.005C764.249 631.433 769.261 635.966 773.882 640.605C796.917 663.67 819.746 690.695 870.185 700.661C899.519 706.492 932.05 704.95 957.683 695.217C990.673 682.703 1004.65 663.833 1016.49 645.325C1019.09 641.236 1021.52 637.03 1023.75 632.753C1037.27 607.025 1042.95 578.492 1014.74 553.477C1006.21 545.905 994.834 539.117 980.741 533.543C949.637 521.252 911.704 514.825 880.185 502.697C852.23 491.925 829.401 477.705 806.803 464.408C776.089 446.333 734.799 433.691 690.062 437.687Z" stroke="#FAEFE6" stroke-miterlimit="10"/>
<path d="M731.024 472.857C688.953 475.568 660.423 490.944 654.837 510.994C653.503 515.715 653.503 520.529 654.653 525.401C657.412 537.097 666.401 549.751 681.597 561.75C697.436 574.276 719.277 584.791 738.289 596.324C752.244 604.783 765.738 613.534 777.486 622.718C781.716 626.036 785.716 629.401 789.464 632.825C808.43 650.082 827.695 669.595 865.444 677.084C889.836 681.968 916.573 681.033 938.482 673.135C965.425 663.414 977.15 648.832 985.656 634.239C987.541 630.99 989.197 627.66 990.668 624.26C999.381 604.175 1000.44 581.929 977.679 562.159C971.196 556.539 962.828 551.422 952.597 547.145C929.953 537.681 902.595 532.201 879.399 522.982C858.754 514.768 841.558 504.264 824.27 494.613C798.544 480.265 765.302 470.649 731.024 472.857Z" stroke="#FAEFE6" stroke-miterlimit="10"/>
<path d="M772.012 508.014C737.643 508.82 712.86 520.119 708.952 536.102C708.032 539.783 708.285 543.604 709.573 547.541C712.423 556.234 719.918 566.388 731.964 576.319C742.356 584.907 756.264 592.502 769.047 600.529C778.38 606.382 787.622 612.341 796.128 618.405C799.209 620.602 802.174 622.822 805.071 625.03C820.014 636.481 835.693 648.492 860.729 653.505C880.201 657.442 901.121 657.103 919.306 651.051C940.158 644.111 949.675 633.84 954.871 623.149C956.02 620.742 956.917 618.277 957.607 615.765C961.561 601.347 958.021 585.363 940.64 570.839C936.249 567.159 930.847 563.735 924.456 560.756C910.294 554.131 893.489 549.574 878.592 543.288C865.258 537.633 853.602 530.891 841.693 524.839C820.888 514.241 795.737 507.453 772.012 508.014Z" stroke="#FAEFE6" stroke-miterlimit="10"/>
<path d="M813.011 543.173C780.527 541.187 756.25 553.186 764.503 569.684C767.354 575.386 773.63 582.981 782.343 590.903C791.056 598.825 802.206 607.085 814.804 614.107C827.402 621.13 841.472 626.925 856.024 629.916C870.577 632.907 885.612 633.106 900.141 628.946C918.257 623.759 925.177 616.012 924.533 607.249C923.889 598.486 915.705 588.718 903.59 579.499C891.474 570.28 875.45 561.599 859.151 555.021C842.828 548.454 826.23 543.979 813.011 543.173Z" stroke="#FAEFE6" stroke-miterlimit="10"/>
<path d="M346.407 509.872C387.719 527.62 430.64 544.387 475.01 560.102C519.38 575.817 565.175 589.032 603.062 608.953C718.699 669.734 781.76 797.348 612.809 852.193C506.552 886.685 376.454 856.785 264.564 879.85C216.378 889.781 164.996 908.488 112.81 891.733C92.7631 885.295 80.2338 874.253 71.3139 863.083C29.4959 810.762 45.1978 747.796 40.393 692.378C35.4042 634.904 30.3925 575.175 63.1296 519.395C74.9232 499.286 97.2231 480.042 131.799 468.58C213.734 441.403 278.013 480.066 335.923 505.327C339.395 506.846 342.889 508.365 346.407 509.872Z" stroke="#FAEFE6" stroke-miterlimit="10"/>
<path d="M164.933 503.177C233.787 481.094 288.387 512.723 336.987 534.163C339.906 535.448 342.826 536.733 345.769 538.007C381.104 553.523 416.875 568.584 454.532 582.547C492.189 596.521 531.639 608.193 564.859 625.135C575.457 630.534 585.619 636.504 595.136 642.919C676.335 697.916 714.912 789.333 587.964 834.141C496.672 866.366 377.885 838.569 284.755 853.969C244.937 860.547 203.418 874.849 160.933 860.407C144.564 854.799 134.219 845.51 126.678 836.127C114.379 820.81 107.551 804.499 103.344 787.872C95.5046 756.746 97.6656 724.591 92.3091 694.75C84.4236 650.689 77.5958 603.742 98.2174 559.354C100.194 555.077 102.447 550.824 104.953 546.595C115.322 529.256 134.909 512.804 164.933 503.177Z" stroke="#FAEFE6" stroke-miterlimit="10"/>
<path d="M198.052 537.773C253.778 520.75 298.746 545.391 338.058 562.988C340.403 564.039 342.771 565.091 345.116 566.142C374.565 579.381 403.118 592.794 434.016 604.992C464.96 617.237 498.065 627.344 526.618 641.33C535.791 645.805 544.665 650.677 552.987 655.912C623.542 700.253 665.682 775.732 563.079 816.089C486.777 846.106 379.784 820.319 304.907 828.077C273.618 831.314 241.686 841.28 208.995 829.059C196.258 824.303 188.12 816.732 182.005 809.149C171.981 796.74 165.889 783.642 161.406 770.404C153.015 745.634 151.682 720.63 144.233 697.086C132.922 661.345 123.91 621.782 141.083 584.487C142.739 580.899 144.624 577.324 146.785 573.784C155.705 559.237 172.556 545.567 198.052 537.773Z" stroke="#FAEFE6" stroke-miterlimit="10"/>
<path d="M231.183 572.382C273.714 560.371 309.14 578.072 339.142 591.824C340.935 592.642 342.728 593.46 344.498 594.29C368.017 605.284 389.374 617.004 413.536 627.449C437.79 637.953 464.527 646.518 488.413 657.536C496.137 661.076 503.724 664.874 510.874 668.928C570.6 702.672 616.625 762.331 538.231 798.073C477.01 825.986 382.707 802.22 325.095 802.22C302.68 802.22 280.036 807.677 257.115 797.757C248.057 793.831 242.103 788.001 237.367 782.205C229.62 772.706 224.263 762.81 219.504 752.972C210.584 734.569 205.527 716.669 196.17 699.47C181.204 671.977 170.261 639.869 183.985 609.654C185.296 606.757 186.859 603.859 188.652 600.996C196.101 589.207 210.193 578.306 231.183 572.382Z" stroke="#FAEFE6" stroke-miterlimit="10"/>
<path d="M264.305 606.979C293.502 599.863 319.503 610.741 340.216 620.649C341.435 621.233 342.676 621.818 343.872 622.413C361.413 631.188 375.62 641.201 393.046 649.883C410.587 658.646 430.979 665.668 450.198 673.707C456.498 676.324 462.751 679.046 468.774 681.897C517.581 705.09 567.928 749.104 513.397 779.997C467.51 805.983 386.977 785.045 345.297 776.317C332.17 773.571 318.422 774.003 305.226 766.397C299.847 763.289 296.054 759.223 292.72 755.215C287.249 748.614 282.628 741.93 277.593 735.504C268.121 723.458 258.948 712.673 248.097 701.807C228.855 682.54 216.579 657.921 226.855 634.787C227.844 632.579 229.039 630.359 230.487 628.185C236.488 619.177 247.752 611.01 264.305 606.979Z" stroke="#FAEFE6" stroke-miterlimit="10"/>
<path d="M426.661 694.913C407.143 688.311 387.027 681.721 372.566 672.339C361.876 665.41 354.657 657.185 343.232 650.56C331.829 643.935 313.966 638.946 297.437 641.586C282.263 644.005 273.16 652.055 269.78 659.966C262.929 676.02 275.091 693.768 300.057 704.202C311.644 709.039 325.691 712.404 335.714 718.082C351.439 727.009 354.382 739.908 365.509 750.471C386.498 770.404 458.8 786.306 488.572 761.991C520.067 736.204 464.341 707.672 426.661 694.913Z" stroke="#FAEFE6" stroke-miterlimit="10"/>
<path d="M800.013 185.79C775.23 233.718 702.284 275.069 609.637 290.527C580.601 295.376 550.025 297.783 521.748 303.636C475.056 313.311 436.824 332.73 416.57 356.133C398.202 377.328 404.662 401.795 385.65 422.861C367.948 442.49 330.475 453.894 287.875 451.966C245.689 450.05 208.4 437.899 171.157 428.68C136.351 420.069 99.7516 411.469 75.2448 395.602C37.335 371.042 31.1508 338.467 22.2309 308.649C7.95438 260.966 0 212.605 0 164.35C0 138.738 3.81626 112.285 26.8058 89.4896C59.7958 56.774 127.132 36.689 194.997 23.9533C321.601 0.187828 468.113 -3.99509 599.521 11.9421C671.639 20.6818 751.229 40.2994 782.794 76.567C812.864 111.094 818.956 149.149 800.013 185.79Z" stroke="#FAEFE6" stroke-miterlimit="10"/>
<path d="M730.077 87.9246C741.043 99.9242 748.768 112.508 752.929 125.361C759.297 144.966 757.596 165.098 747.779 184.774C726.491 227.445 662.488 264.495 581.565 279.205C556.184 283.844 529.493 286.403 504.757 291.836C464.249 300.716 430.409 318.102 411.81 338.946C395.12 357.711 399.557 379.268 382.153 397.753C366.084 414.917 333.071 424.953 295.667 423.376C258.493 421.834 225.595 411.248 192.812 402.917C162.442 395.217 130.579 387.459 109.199 373.274C76.0708 351.32 71.0361 322.624 64.0472 296.381C52.8743 254.4 48.4833 212.068 49.9087 169.807C50.6673 147.525 54.3456 124.484 74.5075 104.574C103.451 75.9834 161.707 58.1768 220.261 46.6446C264.401 37.9516 311.3 31.9927 358.934 28.7795C429.19 24.1409 501.4 25.321 569.38 32.904C605.543 36.8883 643.935 44.0741 675.523 55.5128C698.628 63.9254 717.893 74.628 730.077 87.9246Z" stroke="#FAEFE6" stroke-miterlimit="10"/>
<path d="M677.344 99.3053C687.368 109.599 694.655 120.524 698.656 131.752C704.817 148.916 703.736 166.536 695.529 183.793C677.735 221.206 622.652 253.968 553.454 267.907C531.706 272.336 508.923 275.058 487.727 280.047C453.403 288.132 423.954 303.485 407.01 321.759C391.998 338.094 394.343 356.718 378.618 372.655C364.112 387.342 335.605 396.012 303.443 394.797C271.28 393.617 242.773 384.608 214.427 377.165C188.587 370.377 161.436 363.448 143.159 350.958C114.836 331.609 110.905 306.804 105.87 284.113C97.8011 247.857 96.9505 211.531 99.8472 175.275C101.341 156.312 104.905 136.694 122.239 119.671C147.16 95.2042 196.288 79.6876 245.578 69.3472C282.729 61.5656 322.064 55.9805 362.043 52.8025C420.873 48.1171 481.611 48.3041 539.292 53.8891C569.983 56.8569 602.812 62.4886 630.009 72.0462C649.849 78.9983 666.378 88.0418 677.344 99.3053Z" stroke="#FAEFE6" stroke-miterlimit="10"/>
<path d="M624.621 110.672C633.725 119.271 640.576 128.537 644.392 138.118C650.346 152.84 649.886 167.948 643.311 182.775C629.012 214.918 582.803 243.31 525.375 256.583C507.259 260.766 488.385 263.676 470.752 268.244C442.613 275.523 417.462 288.831 402.266 304.57C388.84 318.462 389.231 334.189 375.138 347.556C362.241 359.777 338.217 367.045 311.25 366.215C284.1 365.374 259.984 357.978 236.098 351.4C214.74 345.523 192.326 339.424 177.129 328.628C153.611 311.884 150.783 290.958 147.703 271.843C142.76 241.3 145.427 211.015 149.772 180.742C152.002 165.108 155.45 148.914 169.957 134.765C190.831 114.423 230.856 101.184 270.881 92.0591C301.043 85.1888 332.838 80.0128 365.138 76.823C412.565 72.1494 461.855 71.238 509.167 74.8601C534.433 76.7996 561.607 80.9241 584.458 88.5539C601.011 94.0922 614.873 101.465 624.621 110.672Z" stroke="#FAEFE6" stroke-miterlimit="10"/>
<path d="M566.633 124.253C574.84 131.159 581.208 138.753 584.864 146.71C590.611 158.979 590.772 171.586 585.806 183.983C575.024 210.868 537.689 234.949 492.009 247.474C477.526 251.447 462.582 254.496 448.467 258.644C426.512 265.094 405.752 276.404 392.211 289.584C380.441 301.046 378.832 313.852 366.348 324.648C355.083 334.404 335.519 340.293 313.771 339.825C291.632 339.346 271.907 333.539 252.458 327.838C235.561 322.884 217.905 317.614 205.812 308.489C187.099 294.363 185.375 277.304 184.248 261.764C182.409 236.935 188.593 212.702 194.409 188.399C197.352 176.107 200.709 163.313 212.41 152.062C229.262 135.844 260.183 124.896 290.897 116.962C314.047 111.004 338.301 106.236 362.946 103.047C398.947 98.373 436.811 96.3633 473.778 98.0458C493.618 98.9455 515.16 101.563 533.643 107.276C546.954 111.389 558.15 117.103 566.633 124.253Z" stroke="#FAEFE6" stroke-miterlimit="10"/>
<path d="M519.15 133.411C526.484 138.622 532.323 144.557 535.841 150.867C541.358 160.693 542.186 170.788 538.806 180.766C531.519 202.394 503.103 222.175 469.171 233.953C458.32 237.715 447.285 240.893 436.71 244.632C420.916 250.229 404.547 259.564 392.662 270.185C382.569 279.205 378.937 289.102 368.063 297.339C358.43 304.63 343.303 309.14 326.774 309.035C309.647 308.93 294.312 304.712 279.323 299.863C266.909 295.843 253.966 291.38 244.977 283.949C231.045 272.428 230.448 259.26 231.275 247.284C232.54 228.181 242.149 210 249.529 191.656C253.138 182.706 256.449 173.324 265.323 164.946C278.128 152.853 299.945 144.183 321.394 137.465C337.556 132.418 354.246 128.071 371.235 124.858C395.811 120.208 422.295 117.076 448.871 116.808C463.309 116.667 479.148 117.777 493.333 121.586C503.379 124.274 511.977 128.305 519.15 133.411Z" stroke="#FAEFE6" stroke-miterlimit="10"/>
<path d="M466.433 144.778C472.985 148.271 478.226 152.571 481.583 157.245C486.893 164.629 488.342 172.212 486.594 179.76C482.801 196.129 463.329 211.646 441.098 222.641C433.879 226.204 426.707 229.464 419.718 232.841C410.039 237.515 398.177 244.946 387.9 253.008C379.509 259.609 373.877 266.585 364.566 272.24C356.612 277.077 345.898 280.197 334.565 280.442C322.426 280.699 311.46 278.117 300.977 274.098C293 271.036 284.838 267.356 278.953 261.619C269.826 252.704 270.332 243.415 273.114 235.014C277.505 221.624 290.287 209.519 299.483 197.134C303.644 191.538 307.023 185.544 313.069 180.052C321.851 172.084 334.565 165.692 346.726 160.177C355.876 156.041 365.003 152.15 374.36 148.891C387.464 144.322 402.637 139.952 418.798 137.791C427.833 136.587 437.972 136.237 447.834 138.106C454.524 139.368 460.639 141.693 466.433 144.778Z" stroke="#FAEFE6" stroke-miterlimit="10"/>
<path d="M402.297 154.616C387.445 155.002 380.571 165.915 377.445 172.902C372.502 184.037 365.077 194.237 349.398 202.591C330.362 212.745 301.717 222.957 312.913 239.291C323.994 255.439 343.076 254.118 361.053 247.143C379.054 240.156 395.974 227.525 402.71 221.041C420.045 204.379 447.333 182.787 427.309 163.637C424.137 160.599 419.654 157.806 413.676 156.159C409.446 154.979 405.653 154.523 402.297 154.616Z" stroke="#FAEFE6" stroke-miterlimit="10"/>
<path d="M952.865 191.059C873.85 194.599 804.698 225.854 778.444 263.138C746.258 308.87 804.008 355.104 867.597 386.032C907.116 405.264 956.337 420.488 1007.51 430.326C1060.11 440.433 1161.73 466.302 1212.16 442.197C1260.76 418.958 1227.25 367.758 1213.82 340.066C1183.61 277.86 1109.01 185.217 955.348 190.965C954.521 190.989 953.693 191.024 952.865 191.059Z" stroke="#FAEFE6" stroke-miterlimit="10"/>
<path d="M822.351 270.652C812.994 282.593 811.569 295.13 815.891 307.165C825.248 333.325 859.525 357.722 896.354 376.148C928.793 392.377 969.875 405.475 1012.47 414.098C1056.98 423.118 1140.62 444.044 1182.92 422.884C1222.35 403.161 1195.84 361.321 1184.62 338.186C1159.49 286.449 1096.78 210.712 970.864 213.972C970.174 213.995 969.507 214.007 968.818 214.03C922.563 215.503 880.078 228.203 850.858 246.185C838.881 253.558 829.271 261.842 822.351 270.652Z" stroke="#FAEFE6" stroke-miterlimit="10"/>
<path d="M866.266 278.153C857.645 287.629 856.082 298.25 859.599 308.298C867.255 330.159 894.98 350.571 925.096 366.24C950.477 379.454 983.398 390.449 1017.42 397.857C1053.84 405.79 1119.5 421.786 1153.66 403.57C1183.96 387.399 1164.44 354.883 1155.41 336.305C1135.36 295.048 1084.51 236.184 986.364 236.99C985.835 236.99 985.283 237.001 984.754 237.001C948.27 237.422 914.429 246.384 890.313 259.68C880.428 265.137 872.427 271.388 866.266 278.153Z" stroke="#FAEFE6" stroke-miterlimit="10"/>
<path d="M910.178 285.654C902.223 292.688 900.568 301.358 903.304 309.432C909.281 326.993 930.478 343.397 953.835 356.343C972.181 366.509 996.917 375.459 1022.34 381.628C1050.67 388.498 1098.42 399.598 1124.37 384.257C1145.64 371.696 1132.99 348.445 1126.16 334.424C1111.2 303.636 1072.16 261.62 1001.81 260.008C1001.42 259.996 1001.03 259.984 1000.64 259.973C973.951 259.353 948.731 264.553 929.742 273.176C921.994 276.716 915.534 280.922 910.178 285.654Z" stroke="#FAEFE6" stroke-miterlimit="10"/>
<path d="M954.085 293.154C946.66 297.723 945.05 304.476 947.005 310.564C951.281 323.813 966.063 336.175 982.569 346.434C993.972 353.515 1010.39 360.502 1027.28 365.386C1047.49 371.228 1077.49 377.502 1095.1 364.942C1107.52 356.097 1101.56 342.006 1096.94 332.542C1087.03 312.223 1059.77 286.938 1017.31 283.013C1017.05 282.989 1016.8 282.966 1016.57 282.931C999.674 281.26 983.052 282.72 969.19 286.658C963.534 288.282 958.499 290.444 954.085 293.154Z" stroke="#FAEFE6" stroke-miterlimit="10"/>
<path d="M1032.85 306.031C1025.65 303.262 1017.56 300.913 1008.66 300.165C1005.08 299.861 1001.26 299.838 997.995 300.668C990.662 302.525 989.535 307.596 990.731 311.721C993.306 320.671 1002.06 328.838 1011.35 336.561C1022.66 345.967 1051.63 362.862 1065.88 345.652C1078.23 330.684 1055.1 314.583 1032.85 306.031Z" stroke="#FAEFE6" stroke-miterlimit="10"/>
<path d="M1323.5 696.235C1300.08 687.857 1272.65 683.908 1241.54 688.208C1192.58 694.973 1158.97 716.834 1134.69 738.157C1097.15 771.142 1081.12 812.281 990.843 814.081C945.324 814.992 904.449 802.478 860.447 798.891C817.778 795.409 778.374 804.126 751.04 821.103C680.209 865.094 658.231 937.477 763.293 972.377C821.526 991.726 892.057 996.435 958.06 1005.13C1031.17 1014.76 1106.11 1022.03 1181.91 1022.47C1260.58 1022.91 1339.32 1011.73 1387.8 978.196C1430.04 948.986 1438.06 910.066 1439.76 874.955C1441.6 836.432 1432.91 796.963 1407.78 760.404C1393.07 738.998 1364.38 710.851 1323.5 696.235Z" stroke="#FAEFE6" stroke-miterlimit="10"/>
<path d="M1300.88 724.289C1279.96 717.01 1255.69 713.645 1228.35 717.407C1185.08 723.366 1155.22 742.505 1133.36 761.222C1104.71 785.806 1089.45 815.507 1036.62 824.866C1027.33 826.513 1016.92 827.53 1005.08 827.775C971.903 828.5 941.396 821.279 909.877 817.038C903.233 816.138 896.52 815.378 889.738 814.853C852.058 811.92 817.16 819.515 792.883 834.423C731.179 872.56 712.029 935.328 802.815 965.858C818.333 971.081 834.931 975.089 852.127 978.36C891.485 985.85 934.016 989.542 974.753 994.823C1039.29 1003.21 1105.54 1009.48 1172.51 1009.72C1241.98 1009.98 1311.5 1000.12 1354.79 970.929C1392.7 945.446 1401 911.469 1403.35 880.564C1405.81 846.75 1398.2 812.083 1375.76 780.127C1362.54 761.386 1337.05 736.955 1300.88 724.289Z" stroke="#FAEFE6" stroke-miterlimit="10"/>
<path d="M1278.26 752.353C1259.87 746.149 1238.71 743.38 1215.13 746.616C1177.56 751.757 1151.42 768.185 1132 784.298C1106.66 805.399 1092.5 830.835 1046.64 838.944C1038.54 840.37 1029.49 841.258 1019.26 841.503C990.474 842.204 963.898 836.163 936.471 832.658C930.678 831.91 924.862 831.291 918.953 830.859C886.239 828.464 855.801 834.913 834.651 847.789C781.844 879.967 765.774 933.247 842.283 959.372C855.663 963.941 870.077 967.446 884.975 970.285C918.999 976.77 955.874 980.03 991.37 984.552C1047.3 991.702 1104.89 996.949 1163.06 997.019C1223.36 997.089 1283.64 988.548 1321.73 963.696C1355.29 941.94 1363.89 912.905 1366.9 886.195C1369.98 857.101 1363.43 827.213 1343.71 799.861C1332.01 783.772 1309.78 762.997 1278.26 752.353Z" stroke="#FAEFE6" stroke-miterlimit="10"/>
<path d="M1255.61 780.419C1239.72 775.301 1221.75 773.128 1201.88 775.827C1170.02 780.162 1147.63 793.867 1130.59 807.374C1108.57 824.994 1095.49 846.154 1056.61 853.012C1049.72 854.228 1042.01 854.987 1033.39 855.221C1009.02 855.887 986.333 851.038 963.022 848.257C958.102 847.673 953.136 847.17 948.125 846.843C920.399 844.997 894.421 850.313 876.397 861.145C832.602 887.434 819.475 931.156 881.708 952.888C892.95 956.814 905.157 959.805 917.801 962.212C946.492 967.692 977.735 970.531 1007.99 974.282C1055.32 980.206 1104.27 984.424 1153.58 984.307C1204.71 984.19 1255.63 976.923 1288.65 956.464C1317.8 938.388 1326.88 914.354 1330.42 891.839C1334.26 867.466 1328.65 842.368 1311.61 819.608C1301.47 806.159 1282.46 789.077 1255.61 780.419Z" stroke="#FAEFE6" stroke-miterlimit="10"/>
<path d="M1232.99 808.484C1219.61 804.453 1204.78 802.864 1188.69 805.037C1162.55 808.554 1143.81 819.526 1129.26 830.45C1110.46 844.565 1098.57 861.483 1066.68 867.08C1060.96 868.085 1054.66 868.716 1047.63 868.938C1027.65 869.581 1008.89 865.912 989.692 863.855C985.646 863.423 981.554 863.061 977.416 862.827C954.679 861.518 933.184 865.701 918.241 874.488C883.503 894.888 873.25 929.076 921.252 946.38C930.356 949.664 940.357 952.141 950.725 954.127C974.105 958.602 999.67 961.009 1024.68 964C1063.44 968.685 1103.7 971.887 1144.18 971.583C1186.14 971.279 1227.79 965.32 1255.64 949.208C1280.42 934.848 1289.84 915.78 1294 897.459C1298.49 877.806 1294 857.464 1279.59 839.342C1270.99 828.546 1255.15 815.156 1232.99 808.484Z" stroke="#FAEFE6" stroke-miterlimit="10"/>
<path d="M1210.37 836.55C1199.5 833.617 1187.82 832.613 1175.47 834.248C1155.03 836.959 1140.05 845.208 1127.91 853.527C1112.41 864.16 1101.63 876.802 1076.71 881.148C1072.18 881.943 1067.24 882.445 1061.81 882.656C1046.25 883.275 1031.4 880.786 1016.29 879.466C1013.1 879.186 1009.9 878.963 1006.66 878.823C988.913 878.064 971.923 881.113 960.038 887.843C934.381 902.367 926.91 927.055 960.727 939.896C967.67 942.537 975.51 944.5 983.602 946.054C1001.65 949.536 1021.56 951.51 1041.33 953.73C1071.49 957.177 1103.1 959.362 1134.76 958.883C1167.52 958.392 1199.96 953.754 1222.58 941.988C1243.04 931.355 1252.74 917.229 1257.57 903.115C1262.67 888.182 1259.27 872.631 1247.54 859.101C1240.46 850.933 1227.8 841.259 1210.37 836.55Z" stroke="#FAEFE6" stroke-miterlimit="10"/>
<path d="M1187.75 864.615C1179.36 862.792 1170.85 862.348 1162.28 863.47C1147.54 865.363 1136.3 870.901 1126.58 876.615C1114.39 883.777 1104.69 892.131 1086.76 895.239C1083.42 895.812 1079.86 896.197 1076.02 896.396C1064.85 896.98 1053.93 895.695 1042.94 895.087C1040.62 894.959 1038.27 894.865 1035.93 894.83C1023.17 894.608 1010.71 896.548 1001.88 901.21C985.42 909.891 980.546 925.139 1000.27 933.411C1005.08 935.421 1010.71 936.846 1016.52 937.98C1029.24 940.457 1043.51 941.999 1058.02 943.459C1079.59 945.668 1102.53 946.836 1125.36 946.17C1148.94 945.492 1172.19 942.186 1189.57 934.743C1205.71 927.838 1215.64 918.666 1221.15 908.746C1226.83 898.534 1224.53 887.761 1215.52 878.846C1209.91 873.32 1200.42 867.372 1187.75 864.615Z" stroke="#FAEFE6" stroke-miterlimit="10"/>
<path d="M1096.76 909.307C1088.07 910.767 1078.67 910.522 1069.52 910.685C1060.37 910.849 1050.69 911.573 1043.63 914.553C1036.59 917.532 1033.65 923.421 1039.7 926.915C1042.2 928.363 1045.81 929.193 1049.33 929.906C1088.16 937.652 1161.2 935.491 1184.67 914.389C1194.85 905.229 1184.95 894.9 1165.08 892.692C1134.78 889.315 1121.77 905.089 1096.76 909.307Z" stroke="#FAEFE6" stroke-miterlimit="10"/>
<path d="M748.77 312.819C746.31 307.573 742.402 302.467 737.942 297.84C733.16 292.886 725.758 288.294 715.596 286.378C694.745 282.452 672.79 290.982 657.387 297.128C654.26 298.366 651.134 299.686 649.111 301.416C642.949 306.662 652.49 311.698 660.192 314.724C677.595 321.559 696.377 327.214 713.688 334.085C751.046 348.935 755.414 327.051 748.77 312.819Z" stroke="#FAEFE6" stroke-miterlimit="10"/>
<path d="M708.05 305.33C704.119 304.302 698.992 304.302 695.475 305.669C693.475 306.44 692.05 307.737 692.67 308.964C693.383 310.389 696.349 311.125 698.74 311.943C703.383 313.521 712.188 320.449 717.085 315.717C720.649 312.247 714.143 306.931 708.05 305.33Z" stroke="#FAEFE6" stroke-miterlimit="10"/>
<path d="M1352.81 389.292C1319.5 411.667 1295.52 438.926 1249.87 455.857C1227.77 464.047 1204.23 466.29 1179.22 470.882C1157.2 474.925 1138.64 481.807 1143.15 495.033C1149.79 514.523 1175.91 530.647 1186.37 549.598C1196.62 568.188 1197.63 587.946 1189.31 606.769C1183.1 620.778 1168.35 640.337 1190.37 652.746C1200.74 658.588 1217.47 660.177 1232.95 660.457C1286.88 661.439 1322.54 672.118 1367.27 686.665C1379.73 690.719 1394.33 694.575 1408.7 692.752" stroke="#FAEFE6" stroke-miterlimit="10"/>
<path d="M1355.26 422.767C1327.51 441.345 1305.83 463.124 1266.86 476.023C1245.85 482.987 1221.92 484.868 1199.96 490.254C1183.2 494.367 1168.56 499.753 1171.87 510.386C1176.72 526.171 1196.86 539.503 1205.6 554.949C1214.12 570.034 1215.85 585.947 1211 601.102C1207.34 612.552 1197.66 628.057 1215.16 638.07C1224.08 643.176 1237.71 644.999 1250.49 645.747C1295.09 648.376 1326.43 657.104 1365.67 668.098C1376.55 671.16 1389.1 674.022 1401.56 672.608" stroke="#FAEFE6" stroke-miterlimit="10"/>
<path d="M1357.67 456.241C1335.48 471.022 1315.78 487.157 1283.85 496.189C1263.75 501.868 1239.78 503.223 1220.69 509.626C1209.11 513.517 1198.46 517.7 1200.58 525.738C1203.66 537.808 1217.8 548.371 1224.83 560.288C1231.64 571.856 1234.12 583.96 1232.72 595.411C1231.64 604.303 1226.99 615.765 1239.98 623.371C1247.43 627.741 1258.01 629.809 1268.08 631.012C1303.34 635.301 1330.38 642.019 1364.13 649.497C1373.41 651.553 1383.9 653.446 1394.47 652.429" stroke="#FAEFE6" stroke-miterlimit="10"/>
<path d="M1360.1 489.706C1343.5 500.678 1325.41 510.901 1300.83 516.334C1281.5 520.611 1257.38 521.136 1241.4 528.976C1234.67 532.283 1228.37 535.625 1229.24 541.07C1230.57 549.435 1238.69 557.205 1244.02 565.618C1249.1 573.68 1252.46 581.999 1254.37 589.711C1255.93 596.078 1256.21 603.474 1264.74 608.674C1270.71 612.308 1278.23 614.609 1285.59 616.28C1311.52 622.216 1334.23 626.983 1362.49 630.897C1370.17 631.96 1378.63 632.872 1387.29 632.241" stroke="#FAEFE6" stroke-miterlimit="10"/>
<path d="M1362.54 523.181C1351.5 530.355 1334.81 534.281 1317.82 536.501C1298.99 538.966 1272.58 538.253 1262.14 548.348C1247.73 562.311 1273.29 583.272 1289.54 593.998C1314 610.146 1340.95 613.417 1380.19 612.085" stroke="#FAEFE6" stroke-miterlimit="10"/>
<path d="M661.913 968.755C648.556 958.017 639.429 945.913 635.245 933.387C631.682 922.72 631.084 911.035 617.727 902.6C604.37 894.164 581.128 891.278 559.886 892.131C538.643 892.983 518.481 896.979 498.021 900.029C458.479 905.93 416.937 908.336 375.808 907.133C349.991 906.374 324.312 904.2 298.449 904.352C250.331 904.621 202.536 913.185 164.718 928.316C152.626 933.154 141.039 939.066 137.269 946.649C133.499 954.232 140.579 963.649 155.431 965.706" stroke="#FAEFE6" stroke-miterlimit="10"/>
<path d="M580.645 954.839C584.139 945.457 586.852 934.544 574.254 927.463C558.782 918.77 531.332 921.493 508.917 924.227C464.249 929.672 418.247 932.324 372.314 932.102C324.725 931.868 271.481 929.461 235.411 945.223C217.801 952.911 207.502 967.388 222.468 976.396" stroke="#FAEFE6" stroke-miterlimit="10"/>
<path d="M1361.1 348.211C1345.37 359.451 1309.87 358.867 1288.31 350.478C1266.75 342.088 1256.01 328.511 1247.37 315.437C1228.45 286.858 1214.7 257.18 1187.57 230.353C1160.44 203.538 1116.99 179.142 1059.79 171.173C1025.82 166.441 989.148 167.75 955.836 161.931C921.72 155.972 893.58 142.769 875.051 127.042C856.521 111.315 847.004 93.1814 842.773 74.9776C839.555 61.1202 839.348 46.8539 846.958 33.4405C854.567 20.0271 870.706 7.49005 894.477 0.479576" stroke="#FAEFE6" stroke-miterlimit="10"/>
<path d="M949.999 6.81161C929.032 13.0392 914.733 24.0924 907.882 35.9401C901.054 47.7762 901.077 60.395 903.859 72.6517C907.514 88.7524 915.997 104.783 932.527 118.652C949.148 132.58 974.275 144.17 1004.55 149.533C1022.97 152.793 1042.49 153.681 1061.84 154.955C1073.57 155.726 1085.22 156.637 1096.56 158.308C1147.06 165.727 1185.43 187.437 1209.32 211.319C1210.93 212.931 1212.49 214.567 1214.01 216.203C1233.28 237.094 1244.66 259.843 1259.69 281.354C1260.91 283.094 1262.13 284.812 1263.39 286.53C1270.98 296.905 1280.13 307.433 1296.43 314.431C1297.85 315.039 1299.32 315.635 1300.86 316.184C1319.99 323.101 1350.91 323.241 1364.87 313.251" stroke="#FAEFE6" stroke-miterlimit="10"/>
<path d="M1005.51 13.134C987.33 18.5788 974.87 28.1598 968.824 38.4184C962.777 48.6888 962.616 59.6485 964.961 70.3044C968.042 84.302 975.491 98.2411 989.997 110.241C1004.71 122.357 1026.83 132.335 1053.26 137.114C1069.33 140.012 1086.35 140.923 1103.15 142.197C1113.34 142.968 1123.47 143.868 1133.29 145.41C1177.09 152.28 1210.4 171.314 1231.02 192.252C1232.42 193.665 1233.75 195.091 1235.07 196.528C1251.66 214.849 1261.53 234.957 1275.83 253.219C1276.98 254.692 1278.15 256.152 1279.34 257.589C1286.56 266.306 1295.14 274.917 1309.46 280.478C1310.7 280.969 1312.01 281.425 1313.34 281.869C1330.06 287.314 1356.38 287.01 1368.59 278.27" stroke="#FAEFE6" stroke-miterlimit="10"/>
<path d="M1061.03 19.4425C1045.63 24.1161 1035.01 32.2015 1029.75 40.8945C1024.48 49.5992 1024.16 58.8998 1026.07 67.9666C1028.57 79.8728 1034.99 91.6971 1047.49 101.839C1060.3 112.156 1079.4 120.522 1102.03 124.705C1115.75 127.24 1130.23 128.187 1144.51 129.449C1153.18 130.22 1161.75 131.108 1170.05 132.533C1207.13 138.854 1235.39 155.2 1252.74 173.217C1253.92 174.432 1255.04 175.659 1256.15 176.898C1270.1 192.66 1278.42 210.116 1291.99 225.13C1293.09 226.345 1294.19 227.525 1295.32 228.705C1302.15 235.774 1310.17 242.457 1322.52 246.57C1323.6 246.932 1324.7 247.271 1325.85 247.587C1340.13 251.559 1361.9 250.812 1372.34 243.334" stroke="#FAEFE6" stroke-miterlimit="10"/>
<path d="M1116.55 25.7647C1103.93 29.6555 1095.15 36.2571 1090.66 43.3844C1086.18 50.5117 1085.67 58.1648 1087.15 65.631C1089.08 75.434 1094.41 85.1785 1104.96 93.4392C1115.84 101.957 1131.95 108.71 1150.73 112.297C1162.11 114.471 1174.09 115.44 1185.82 116.702C1192.94 117.473 1199.98 118.35 1206.78 119.647C1237.18 125.419 1260.33 139.077 1274.44 154.162C1275.41 155.178 1276.3 156.206 1277.2 157.246C1288.49 170.438 1295.32 185.253 1308.14 197.007C1309.18 197.954 1310.24 198.877 1311.29 199.776C1317.75 205.198 1325.2 209.965 1335.57 212.629C1336.47 212.863 1337.41 213.085 1338.35 213.283C1350.22 215.795 1367.41 214.604 1376.08 208.364" stroke="#FAEFE6" stroke-miterlimit="10"/>
<path d="M1172.09 32.085C1162.25 35.2047 1155.31 40.3106 1151.63 45.8723C1147.93 51.4339 1147.26 57.4279 1148.3 63.2933C1149.66 70.9931 1153.95 78.6346 1162.48 85.0375C1171.45 91.7558 1184.58 96.8852 1199.5 99.888C1208.53 101.699 1218 102.704 1227.2 103.954C1232.79 104.725 1238.28 105.59 1243.59 106.77C1267.27 111.993 1285.36 122.976 1296.21 135.116C1296.95 135.934 1297.66 136.763 1298.33 137.593C1306.97 148.214 1312.26 160.388 1324.35 168.894C1325.32 169.584 1326.33 170.238 1327.34 170.857C1333.43 174.62 1340.31 177.471 1348.7 178.697C1349.43 178.803 1350.17 178.896 1350.93 178.99C1360.38 180.029 1372.98 178.394 1379.9 173.405" stroke="#FAEFE6" stroke-miterlimit="10"/>
<path d="M1227.61 38.3956C1220.56 40.7324 1215.48 44.3662 1212.56 48.3505C1209.64 52.3348 1208.79 56.6812 1209.38 60.946C1210.16 66.5427 1213.45 72.0926 1219.96 76.6261C1227.02 81.5451 1237.13 85.062 1248.21 87.4689C1254.9 88.9178 1261.85 89.946 1268.51 91.1962C1272.56 91.9673 1276.54 92.8203 1280.33 93.8718C1297.29 98.5455 1310.31 106.841 1317.92 116.048C1318.42 116.668 1318.93 117.299 1319.39 117.929C1325.39 125.991 1329.16 135.514 1340.49 140.772C1341.41 141.193 1342.33 141.578 1343.3 141.929C1349.02 144.043 1355.32 144.967 1361.73 144.756C1362.29 144.733 1362.86 144.709 1363.41 144.674C1370.42 144.242 1378.47 142.162 1383.62 138.423" stroke="#FAEFE6" stroke-miterlimit="10"/>
<path d="M1283.14 44.7157C1268.95 49.8917 1266.15 61.459 1277.43 68.2241C1285.71 73.1899 1298.86 75.1178 1309.85 78.4477C1324.36 82.8643 1335.51 90.0618 1340.5 98.2757C1343.83 103.767 1346.08 110.661 1356.7 112.647C1362.73 113.781 1369.67 112.752 1374.84 110.813C1380.01 108.873 1383.76 106.139 1387.42 103.452" stroke="#FAEFE6" stroke-miterlimit="10"/>
<path d="M852.641 144.79C851.146 144.475 849.675 144.393 848.273 144.639C847.307 144.814 846.64 145.234 846.043 145.655C839.698 150.27 840.226 156.521 838.387 161.849C836.456 167.399 834.939 172.996 833.329 178.569C832.387 181.888 828.295 188.454 834.732 190.943C837.996 192.205 842.571 191.807 846.571 191.34C861.354 189.611 879.722 186.888 883.378 178.254C886.389 171.15 878.136 164.338 872.504 158.134C868.25 153.437 862.687 146.952 852.641 144.79Z" stroke="#FAEFE6" stroke-miterlimit="10"/>
<path d="M1094.49 483.537C1081.08 484.507 1072.03 476.877 1063.11 473.103C1050.88 467.939 1036.9 463.896 1022.39 460.648C1005.45 456.862 987.677 454.14 969.883 451.593C957.906 449.887 940.871 446.499 941.836 438.659C942.434 433.856 962.849 437.654 968.803 438.881C1011.22 447.62 1051.84 458.662 1097.89 462.798C1119.64 464.749 1114.69 481.925 1094.74 483.526C1094.65 483.526 1094.56 483.537 1094.49 483.537Z" stroke="#FAEFE6" stroke-miterlimit="10"/>
<path d="M467.603 519.197C465.971 518.379 464.408 517.561 462.982 516.766C439.786 503.867 424.981 489.215 410.175 473.629C408.221 471.56 406.129 469.469 402.957 467.833C397.393 464.971 389.232 464.912 381.829 465.228C374.749 465.531 367.714 466.069 360.771 466.852C351 467.95 340.149 470.147 337.046 474.972C333.413 480.651 342.471 486.166 350.127 490.676C388.128 513.062 428.935 533.521 482.707 546.292C486.708 547.239 490.892 548.103 495.306 548.243C497.536 548.314 499.973 548.162 501.605 547.379C503.49 546.467 503.743 544.972 503.398 543.652C500.892 533.919 481.443 526.149 467.603 519.197Z" stroke="#FAEFE6" stroke-miterlimit="10"/>
<path d="M804.937 766.117C793.189 758.744 782.982 750.857 771.694 743.239C766.82 739.944 757.648 738.554 751.647 742.024C748.015 744.127 747.049 747.095 747.141 749.899C747.555 762.296 748.521 773.057 740.428 785.08C730.014 800.573 715.554 815.435 696.656 828.72C687.231 835.345 676.678 841.573 665.046 847.216C646.631 856.143 602.629 868.107 633.642 883.355C637.941 885.47 643.619 886.977 649.597 887.024C668.931 887.176 675.736 871.648 682.725 864.824C693.093 854.671 703.001 844.389 712.703 834.072C726.589 819.303 738.336 802.489 764.406 791.974C771.786 788.994 780.269 786.646 789.327 785.279C798.293 783.935 810.914 785.431 818.869 783.187C828.317 780.512 820.501 775.067 815.765 772.473C811.972 770.417 808.385 768.29 804.937 766.117Z" stroke="#FAEFE6" stroke-miterlimit="10"/>
</svg>
