<svg width="24" height="24" viewBox="0 0 24 24" fill="none" xmlns="http://www.w3.org/2000/svg">
<path d="M12 3.95508C7.30683 3.95508 3.1014 6.94113 1.53509 11.3857C1.4883 11.5194 1.4883 11.6635 1.53509 11.7971C3.1014 16.2417 7.30683 19.2278 12 19.2278C16.6932 19.2278 20.8986 16.2417 22.4649 11.7971C22.5117 11.6635 22.5117 11.5194 22.4649 11.3857C20.8986 6.94113 16.6931 3.95508 12 3.95508ZM12 17.9551C7.9407 17.9551 4.29215 15.4065 2.85209 11.5914C4.29215 7.77636 7.94066 5.22782 12 5.22782C16.0593 5.22782 19.7078 7.77636 21.1479 11.5914C19.7078 15.4065 16.0593 17.9551 12 17.9551Z" fill="#0054FD"/>
<path d="M12.0079 7.77344C9.83659 7.77344 8.07031 9.48617 8.07031 11.5916C8.07031 13.6971 9.83659 15.4098 12.0079 15.4098C14.1792 15.4098 15.9455 13.6971 15.9455 11.5916C15.9455 9.48613 14.1792 7.77344 12.0079 7.77344ZM12.0079 14.1371C10.5601 14.1371 9.38285 12.9955 9.38285 11.5916C9.38285 10.1878 10.5602 9.04618 12.0079 9.04618C13.4557 9.04618 14.6329 10.1878 14.6329 11.5916C14.6329 12.9955 13.4556 14.1371 12.0079 14.1371Z" fill="#0054FD"/>
<line x1="2.80668" y1="2.64645" x2="19.9885" y2="19.8283" stroke="#0054FD"/>
</svg>
