<svg width="602" height="385" viewBox="0 0 602 385" fill="none" xmlns="http://www.w3.org/2000/svg">
<path fill-rule="evenodd" clip-rule="evenodd" d="M299.258 194.959C306.097 196.394 311.25 199.463 310.758 201.808C310.266 204.153 304.314 204.893 297.475 203.458C290.636 202.024 285.483 198.955 285.975 196.61C286.467 194.264 292.419 193.525 299.258 194.959Z" fill="#132C4A"/>
<path d="M71.0637 251.523C71.0637 251.523 82.6913 237.96 71.7808 229.344C71.7808 229.344 63.811 224.52 57.3122 224.912C57.3122 224.912 66.5211 240.35 63.5416 241.886C60.5631 243.421 54.5217 223.944 54.5217 223.944C54.5217 223.944 36.3851 222.185 30.551 224.99C30.551 224.99 46.0552 237.675 42.7898 238.43C39.5244 239.186 22.7775 226.734 22.7775 226.734C22.7775 226.734 5.89723 229.607 6.79751 239.902C7.69748 250.197 13.5138 253.376 16.0701 253.103C18.6267 252.829 33.5806 247.122 33.9065 249.216C34.2317 251.31 25.2302 258.154 18.9272 258.474C18.9272 258.474 30.8277 271.596 38.7376 267.809C46.6467 264.022 47.3216 258.019 52.2516 255.767C57.1826 253.516 61.3911 253.522 59.3556 255.817C57.3201 258.114 48.3972 260.346 45.5775 265.332C42.7578 270.318 40.2284 273.682 48.4115 272.451C56.5945 271.219 69.8959 265.233 70.4798 258.378L71.0637 251.523Z" fill="white" stroke="#132C4A" stroke-width="1.32235" stroke-miterlimit="2" stroke-linejoin="round"/>
<path d="M14.3916 240.161C14.3916 240.161 60.2395 238.394 70.3641 251.504C70.3641 251.504 72.6034 258.209 79.4934 264.314L80.5678 267.24C80.5678 267.24 72.6234 258.865 69.7802 258.359C69.7802 258.359 74.2258 242.118 14.3916 240.161Z" fill="white"/>
<path d="M14.3916 240.161C14.3916 240.161 60.2395 238.394 70.3641 251.504C70.3641 251.504 72.6034 258.209 79.4934 264.314L80.5678 267.24C80.5678 267.24 72.6234 258.865 69.7802 258.359C69.7802 258.359 74.2258 242.118 14.3916 240.161" stroke="#132C4A" stroke-width="1.32235" stroke-miterlimit="2" stroke-linejoin="round"/>
<path d="M79.5268 264.305C79.5268 264.305 89.3678 271.582 90.0516 284.583L88.2656 284.743C88.2656 284.743 85.1225 271.299 79.4415 266.042C73.7606 260.785 79.5268 264.305 79.5268 264.305Z" fill="white"/>
<path d="M79.5268 264.305C79.5268 264.305 89.3678 271.582 90.0516 284.583L88.2656 284.743C88.2656 284.743 85.1225 271.299 79.4415 266.042C73.7606 260.785 79.5268 264.305 79.5268 264.305" stroke="#132C4A" stroke-width="1.32235" stroke-miterlimit="2" stroke-linejoin="round"/>
<path d="M125.712 235.97C125.712 235.97 107.215 225.613 115.847 211.558C115.847 211.558 122.752 202.928 130.152 200.709C130.152 200.709 126.205 221.668 130.152 222.161C134.098 222.654 132.864 198.489 132.864 198.489C132.864 198.489 152.348 189.119 159.994 189.859C159.994 189.859 147.909 210.325 151.855 209.832C155.801 209.339 169.366 188.626 169.366 188.626C169.366 188.626 189.343 184.928 192.548 196.763C195.755 208.599 190.575 214.517 187.616 215.257C184.656 215.997 165.666 215.75 166.159 218.216C166.653 220.682 179.478 224.627 186.629 222.408C186.629 222.408 178.737 241.887 168.379 240.902C158.021 239.915 154.814 233.504 148.402 233.01C141.989 232.517 137.304 234.244 140.51 235.97C143.716 237.695 154.568 236.535 159.747 240.938C164.926 245.34 169.119 248.052 159.5 250.025C149.882 251.997 132.618 250.765 129.165 243.367L125.712 235.97Z" fill="white" stroke="#132C4A" stroke-width="1.32235" stroke-miterlimit="2" stroke-linejoin="round"/>
<path d="M183.824 200.472C183.824 200.472 132.032 217.239 126.113 235.979C126.113 235.979 126.36 244.363 121.181 253.98V257.678C121.181 257.678 126.606 245.103 129.566 243.377C129.566 243.377 117.974 227.102 183.824 200.472Z" fill="white" stroke="#132C4A" stroke-width="1.32235" stroke-miterlimit="2" stroke-linejoin="round"/>
<path d="M113.811 253.965C113.811 253.965 105.823 266.091 110.377 280.853L112.431 280.301C112.431 280.301 110.437 264.042 114.616 255.865C118.795 247.688 113.811 253.965 113.811 253.965Z" fill="white" stroke="#132C4A" stroke-width="1.32235" stroke-miterlimit="2" stroke-linejoin="round"/>
<path d="M95.5058 248.485C95.5058 248.485 87.5186 260.611 92.072 275.373L94.1268 274.821C94.1268 274.821 92.1319 258.562 96.3109 250.385C100.49 242.207 95.5058 248.485 95.5058 248.485Z" fill="white"/>
<path d="M95.5058 248.485C95.5058 248.485 87.5186 260.611 92.072 275.373L94.1268 274.821C94.1268 274.821 92.1319 258.562 96.3109 250.385C100.49 242.207 95.5058 248.485 95.5058 248.485" stroke="#132C4A" stroke-width="1.32235" stroke-miterlimit="2" stroke-linejoin="round"/>
<path d="M107.567 211.93C107.567 211.93 136.719 206.738 132.162 183.897C132.162 183.897 127.263 169.121 118.649 162.689C118.649 162.689 113.772 192.57 108.375 191.383C102.978 190.195 116.164 158.451 116.164 158.451C116.164 158.451 95.1702 136.797 84.8163 134.208C84.8163 134.208 90.8194 167.239 85.8947 164.732C80.9705 162.225 73.15 128.171 73.15 128.171C73.15 128.171 48.7942 113.872 38.9327 128.202C29.0705 142.531 33.0098 152.872 36.5263 155.246C40.0428 157.621 64.9974 166.182 63.1715 169.249C61.3449 172.316 42.6828 171.59 34.392 165.273C34.392 165.273 35.3835 195.022 49.4029 198.552C63.4229 202.082 70.6866 195.008 79.3094 197.351C87.9321 199.693 93.2343 204.195 88.2139 205.003C83.1942 205.811 69.5578 199.178 60.6758 202.642C51.7934 206.105 45.0112 207.77 56.6454 214.912C68.2803 222.053 91.4499 228.486 99.5087 220.208L100.519 219.171C99.9521 219.892 99.5087 220.208 99.5087 220.208C101.333 222.422 102.449 230.26 103.051 236.188C103.086 237.173 103.204 238.566 103.434 240.48L103.434 240.482C103.502 241.351 103.55 242.058 103.582 242.542C103.934 255.474 94.119 275.231 94.119 275.231L97.0104 275.886C110.036 258.274 105.398 238.315 105.398 238.315V238.315C103.23 223.028 107.567 211.93 107.567 211.93V211.93Z" fill="white" stroke="#132C4A" stroke-width="1.32235" stroke-miterlimit="2" stroke-linejoin="round"/>
<path d="M97.2398 379.28C70.8615 379.28 49.4776 332.729 49.4776 275.306H145.002C145.002 332.729 123.618 379.28 97.2398 379.28Z" fill="white" stroke="#132C4A" stroke-width="1.32235" stroke-miterlimit="2" stroke-linejoin="round"/>
<path d="M146.134 275.021H47.9541V279.644H146.134V275.021Z" fill="white" stroke="#132C4A" stroke-width="1.32235" stroke-miterlimit="2" stroke-linejoin="round"/>
<path fill-rule="evenodd" clip-rule="evenodd" d="M322.556 202.617V359.616C322.556 370.489 331.372 379.303 342.247 379.304C376.941 379.304 448.564 379.304 483.258 379.304C494.133 379.303 502.949 370.489 502.949 359.616C502.949 299.457 502.949 118.496 502.949 58.3371C502.949 47.4639 494.133 38.6495 483.258 38.6495C472.449 38.6495 459.827 38.6495 452.693 38.6495C449.55 38.6495 446.994 41.1802 446.963 44.3224C446.934 47.2363 446.9 50.7772 446.871 53.6911C446.84 56.8332 444.284 59.364 441.141 59.364C428.013 59.364 395.66 59.364 382.417 59.364C380.887 59.364 379.42 58.7517 378.344 57.6639C377.267 56.5762 376.671 55.1028 376.688 53.5726C376.718 50.7211 376.756 47.2924 376.787 44.4409C376.803 42.9107 376.207 41.4373 375.13 40.3495C374.054 39.2615 372.587 38.6495 371.057 38.6495H342.247C337.025 38.6495 332.016 40.7235 328.323 44.4159C324.63 48.1079 322.556 53.1155 322.556 58.3371V59.0537" fill="white"/>
<path d="M322.556 202.617V359.616C322.556 370.489 331.372 379.303 342.247 379.304C376.941 379.304 448.564 379.304 483.258 379.304C494.133 379.303 502.949 370.489 502.949 359.616C502.949 299.457 502.949 118.496 502.949 58.3371C502.949 47.4639 494.133 38.6495 483.258 38.6495C472.449 38.6495 459.827 38.6495 452.693 38.6495C449.55 38.6495 446.994 41.1802 446.963 44.3224C446.934 47.2363 446.9 50.7772 446.871 53.6911C446.84 56.8332 444.284 59.364 441.141 59.364C428.013 59.364 395.66 59.364 382.417 59.364C380.887 59.364 379.42 58.7517 378.344 57.6639C377.267 56.5762 376.671 55.1028 376.688 53.5726C376.718 50.7211 376.756 47.2924 376.787 44.4409C376.803 42.9107 376.207 41.4373 375.13 40.3495C374.054 39.2615 372.587 38.6495 371.057 38.6495H342.247C337.025 38.6495 332.016 40.7235 328.323 44.4159C324.63 48.1079 322.556 53.1155 322.556 58.3371V59.0537" stroke="#132C4A" stroke-width="1.32235" stroke-miterlimit="1.5" stroke-linecap="round" stroke-linejoin="round"/>
<path fill-rule="evenodd" clip-rule="evenodd" d="M317.978 202.617V359.616C317.978 370.489 326.794 379.303 337.669 379.304C372.363 379.304 443.986 379.304 478.68 379.304C489.555 379.303 498.371 370.489 498.371 359.616C498.371 299.457 498.371 118.496 498.371 58.3371C498.371 47.4639 489.555 38.6495 478.68 38.6495C467.87 38.6495 455.248 38.6495 448.115 38.6495C444.972 38.6495 442.416 41.1802 442.385 44.3224C442.356 47.2363 442.321 50.7772 442.293 53.6911C442.262 56.8332 439.706 59.364 436.562 59.364C423.435 59.364 391.082 59.364 377.839 59.364C376.309 59.364 374.842 58.7517 373.766 57.6639C372.689 56.5762 372.093 55.1028 372.109 53.5726C372.14 50.7211 372.177 47.2924 372.208 44.4409C372.225 42.9107 371.628 41.4373 370.552 40.3495C369.476 39.2615 368.009 38.6495 366.478 38.6495H337.669C332.446 38.6495 327.438 40.7235 323.745 44.4159C320.052 48.1079 317.978 53.1155 317.978 58.3371V59.0537" fill="#132C4A" fill-opacity="0.1"/>
<path fill-rule="evenodd" clip-rule="evenodd" d="M458.286 337.753C458.286 335.324 457.321 332.995 455.603 331.277C453.885 329.56 451.555 328.595 449.125 328.595H377.482C375.052 328.595 372.722 329.56 371.004 331.277C369.287 332.995 368.321 335.324 368.321 337.753V342.694C368.321 345.123 369.287 347.452 371.004 349.17C372.722 350.888 375.052 351.852 377.482 351.852H449.125C451.555 351.852 453.885 350.888 455.603 349.17C457.321 347.452 458.286 345.123 458.286 342.694V337.753Z" fill="#FF7C52"/>
<path fill-rule="evenodd" clip-rule="evenodd" d="M477.813 255.854C477.813 255.122 477.522 254.42 477.004 253.902C476.486 253.384 475.783 253.093 475.051 253.093C465.319 253.093 432.686 253.093 422.954 253.093C422.222 253.093 421.519 253.384 421.001 253.902C420.483 254.42 420.192 255.122 420.192 255.854C420.192 262.179 420.192 277.657 420.192 283.982C420.192 284.714 420.483 285.417 421.001 285.934C421.519 286.452 422.222 286.743 422.954 286.743C432.686 286.743 465.319 286.743 475.051 286.743C475.783 286.743 476.486 286.452 477.004 285.934C477.522 285.417 477.813 284.714 477.813 283.982C477.813 277.657 477.813 262.179 477.813 255.854Z" fill="white" stroke="#132C4A" stroke-width="1.32235" stroke-miterlimit="1.5" stroke-linecap="round" stroke-linejoin="round"/>
<path fill-rule="evenodd" clip-rule="evenodd" d="M478 144.177C478 143.444 477.709 142.742 477.191 142.224C476.673 141.706 475.971 141.415 475.238 141.415C458.262 141.415 368.227 141.415 351.251 141.415C350.519 141.415 349.816 141.706 349.298 142.224C348.78 142.742 348.489 143.444 348.489 144.177C348.489 147.63 348.489 153.506 348.489 156.959C348.489 157.692 348.78 158.394 349.298 158.912C349.816 159.43 350.519 159.721 351.251 159.721C368.227 159.721 458.262 159.721 475.238 159.721C475.971 159.721 476.673 159.43 477.191 158.912C477.709 158.394 478 157.692 478 156.959C478 153.506 478 147.63 478 144.177Z" fill="white" stroke="#132C4A" stroke-width="1.32235" stroke-miterlimit="1.5" stroke-linecap="round" stroke-linejoin="round"/>
<path fill-rule="evenodd" clip-rule="evenodd" d="M478 175.92C478 175.188 477.709 174.486 477.191 173.968C476.673 173.45 475.971 173.159 475.238 173.159C458.262 173.159 368.227 173.159 351.251 173.159C350.519 173.159 349.816 173.45 349.298 173.968C348.78 174.486 348.489 175.188 348.489 175.92C348.489 179.373 348.489 185.25 348.489 188.704C348.489 189.436 348.78 190.138 349.298 190.656C349.816 191.174 350.519 191.465 351.251 191.465C368.227 191.465 458.262 191.465 475.238 191.465C475.971 191.465 476.673 191.174 477.191 190.656C477.709 190.138 478 189.436 478 188.704C478 185.25 478 179.373 478 175.92Z" fill="white" stroke="#132C4A" stroke-width="1.32235" stroke-miterlimit="1.5" stroke-linecap="round" stroke-linejoin="round"/>
<path fill-rule="evenodd" clip-rule="evenodd" d="M478 223.825C478 223.093 477.709 222.39 477.191 221.872C476.673 221.354 475.971 221.064 475.238 221.064C458.262 221.064 368.227 221.064 351.251 221.064C350.519 221.064 349.816 221.354 349.298 221.872C348.78 222.39 348.489 223.093 348.489 223.825C348.489 227.278 348.489 233.155 348.489 236.608C348.489 237.34 348.78 238.043 349.298 238.56C349.816 239.078 350.519 239.369 351.251 239.369C368.227 239.369 458.262 239.369 475.238 239.369C475.971 239.369 476.673 239.078 477.191 238.56C477.709 238.043 478 237.34 478 236.608C478 233.155 478 227.278 478 223.825Z" fill="white" stroke="#132C4A" stroke-width="1.32235" stroke-miterlimit="1.5" stroke-linecap="round" stroke-linejoin="round"/>
<path fill-rule="evenodd" clip-rule="evenodd" d="M428.451 377.077C428.451 376.493 428.219 375.933 427.807 375.521C427.394 375.108 426.834 374.876 426.25 374.876C420.528 374.876 405.233 374.876 399.511 374.876C398.927 374.876 398.367 375.108 397.954 375.521C397.542 375.933 397.31 376.493 397.31 377.077C397.31 377.077 397.31 377.077 397.31 377.077C397.31 377.661 397.542 378.22 397.954 378.633C398.367 379.046 398.927 379.278 399.511 379.278C405.233 379.278 420.528 379.278 426.25 379.278C426.834 379.278 427.394 379.046 427.807 378.633C428.219 378.22 428.451 377.661 428.451 377.077C428.451 377.077 428.451 377.077 428.451 377.077Z" fill="white" stroke="#132C4A" stroke-width="1.32235" stroke-miterlimit="1.5" stroke-linecap="round" stroke-linejoin="round"/>
<path fill-rule="evenodd" clip-rule="evenodd" d="M290.521 187.146L295.525 173.732L329.56 176.847L324.613 184.737L290.521 187.146Z" fill="white"/>
<path fill-rule="evenodd" clip-rule="evenodd" d="M406.11 255.854C406.11 255.122 405.819 254.42 405.301 253.902C404.783 253.384 404.08 253.093 403.348 253.093C393.616 253.093 360.983 253.093 351.251 253.093C350.519 253.093 349.816 253.384 349.298 253.902C348.78 254.42 348.489 255.122 348.489 255.854C348.489 262.179 348.489 277.657 348.489 283.982C348.489 284.714 348.78 285.417 349.298 285.934C349.816 286.452 350.519 286.743 351.251 286.743C360.983 286.743 393.616 286.743 403.348 286.743C404.08 286.743 404.783 286.452 405.301 285.934C405.819 285.417 406.11 284.714 406.11 283.982C406.11 277.657 406.11 262.179 406.11 255.854Z" fill="white" stroke="#132C4A" stroke-width="1.32235" stroke-miterlimit="1.5" stroke-linecap="round" stroke-linejoin="round"/>
<path d="M322.556 111.29V118.438" stroke="#132C4A" stroke-width="1.32235" stroke-miterlimit="1.5" stroke-linecap="round" stroke-linejoin="round"/>
<path fill-rule="evenodd" clip-rule="evenodd" d="M331.341 132.765C331.461 127.911 327.617 123.97 322.761 123.97H305.167C300.311 123.97 296.272 127.911 296.152 132.765L295.097 175.372C294.978 180.226 298.822 184.167 303.677 184.167H321.272C326.127 184.167 330.167 180.226 330.287 175.372L331.341 132.765Z" fill="white" stroke="#132C4A" stroke-width="1.32235" stroke-miterlimit="1.5" stroke-linecap="round" stroke-linejoin="round"/>
<path fill-rule="evenodd" clip-rule="evenodd" d="M330.295 132.501C330.412 127.793 326.683 123.97 321.973 123.97H304.908C300.199 123.97 296.281 127.793 296.164 132.501L295.097 175.636C294.981 180.345 298.71 184.167 303.419 184.167H320.484C325.194 184.167 329.112 180.345 329.228 175.636L330.295 132.501Z" fill="white" stroke="#132C4A" stroke-width="1.32235" stroke-miterlimit="1.5" stroke-linecap="round" stroke-linejoin="round"/>
<path d="M312.887 138.62C315.13 138.62 316.948 136.802 316.948 134.56C316.948 132.317 315.13 130.499 312.887 130.499C310.644 130.499 308.825 132.317 308.825 134.56C308.825 136.802 310.644 138.62 312.887 138.62Z" fill="white" stroke="#132C4A" stroke-width="1.32235" stroke-miterlimit="1.5" stroke-linecap="round" stroke-linejoin="round"/>
<path fill-rule="evenodd" clip-rule="evenodd" d="M293.209 184.143C293.209 184.143 300.003 174.969 301.326 171.528C301.326 171.528 303.267 167.559 299.297 166.324C299.297 166.324 296.103 165.198 293.544 169.74C293.544 169.74 289.379 175.692 284.386 180.085C284.386 180.085 278.474 183.878 288.532 193.581L274.063 244.392C261.909 237.265 249.915 229.754 239.211 219.15L224.919 248.626C224.919 248.626 253.77 276.148 277.504 269.797C277.504 269.797 309.018 264.306 308.605 200.352C308.605 200.352 315.911 202.281 324.734 184.777" fill="white"/>
<path d="M293.209 184.143C293.209 184.143 300.003 174.969 301.326 171.528C301.326 171.528 303.267 167.559 299.297 166.324C299.297 166.324 296.103 165.198 293.544 169.74C293.544 169.74 289.379 175.692 284.386 180.085C284.386 180.085 278.474 183.878 288.532 193.581L274.063 244.392C261.909 237.265 249.915 229.754 239.211 219.15L224.919 248.626C224.919 248.626 253.77 276.148 277.504 269.797C277.504 269.797 309.018 264.306 308.605 200.352C308.605 200.352 315.911 202.281 324.734 184.777" stroke="#132C4A" stroke-width="1.32235" stroke-miterlimit="1.5" stroke-linecap="round" stroke-linejoin="round"/>
<path fill-rule="evenodd" clip-rule="evenodd" d="M215.412 315.908L216.058 321.293L292.957 298.464C292.957 298.464 320.583 288.342 331.756 310.74C331.756 310.74 341.854 337.917 311.266 355.32C311.266 355.32 264.954 377.675 230.49 372.507L185.255 321.897L185.47 314.359L215.412 315.908Z" fill="#132C4A"/>
<path fill-rule="evenodd" clip-rule="evenodd" d="M109.178 206.312C109.178 206.312 142.864 143.827 205.506 182.179C206.522 182.803 207.456 183.551 208.288 184.404C214.669 190.956 244.119 221.209 244.119 221.209C244.119 221.209 244.882 237.809 223.611 251.269L210.687 239.963L213.161 303.226L217.678 320.528C217.678 320.528 127.302 334.13 111.955 338.437L120.141 279.067L114.832 254.769C114.832 254.769 99.3873 227.999 109.178 206.312Z" fill="#FF7C52"/>
<path fill-rule="evenodd" clip-rule="evenodd" d="M172.425 132.073L151.692 176.288C151.692 176.288 167.848 198.551 185.618 190.246L191.273 156.098C191.273 156.098 181.58 132.008 172.425 132.073Z" fill="white" stroke="#132C4A" stroke-width="1.32235" stroke-miterlimit="1.5" stroke-linecap="round" stroke-linejoin="round"/>
<path d="M144.064 176.448C144.064 176.448 162.975 206.449 183.778 196.582" stroke="#132C4A" stroke-width="1.32235" stroke-miterlimit="1.5" stroke-linecap="round" stroke-linejoin="round"/>
<path fill-rule="evenodd" clip-rule="evenodd" d="M186.364 254.909L205.008 264.623C205.008 264.623 225.447 262.464 251.123 237.654C251.123 237.654 250.682 221.157 262.793 214.847C262.793 214.847 267.703 207.747 268.749 206.235C268.878 206.048 269.032 205.88 269.207 205.735C270.294 204.832 274.378 201.439 274.378 201.439L279.565 194.307C279.565 194.307 280.333 190.013 284.304 192.452C284.304 192.452 288.494 194.89 281.105 203.602L276.473 208.122L273.606 213.305C273.606 213.305 279.534 212.062 281.05 218.578C281.05 218.578 286.564 219.167 285.875 226.196C285.875 226.196 290.287 227.437 286.013 236.809L284.497 240.393C284.497 240.393 280.085 244.942 281.05 234.328C281.05 234.328 272.029 254.825 262.793 253.86C262.793 253.86 238.515 294.513 209.134 300.208C205.581 300.904 201.897 300.466 198.606 298.955C187.028 293.537 174.917 286.397 162.372 277.848" fill="white"/>
<path d="M186.364 254.909L205.008 264.623C205.008 264.623 225.447 262.464 251.123 237.654C251.123 237.654 250.682 221.157 262.793 214.847C262.793 214.847 267.703 207.747 268.749 206.235C268.878 206.048 269.032 205.88 269.207 205.735C270.294 204.832 274.378 201.439 274.378 201.439L279.565 194.307C279.565 194.307 280.333 190.013 284.304 192.452C284.304 192.452 288.494 194.89 281.105 203.602L276.473 208.122L273.606 213.305C273.606 213.305 279.534 212.062 281.05 218.578C281.05 218.578 286.564 219.167 285.875 226.196C285.875 226.196 290.287 227.437 286.013 236.809L284.497 240.393C284.497 240.393 280.085 244.942 281.05 234.328C281.05 234.328 272.029 254.825 262.793 253.86C262.793 253.86 238.515 294.513 209.134 300.208C205.581 300.904 201.897 300.466 198.606 298.955C187.028 293.537 174.917 286.397 162.372 277.848" stroke="#132C4A" stroke-width="1.32235" stroke-miterlimit="1.5" stroke-linecap="round" stroke-linejoin="round"/>
<path fill-rule="evenodd" clip-rule="evenodd" d="M236.698 358.388C236.698 358.388 261.25 349.502 269.7 342.951C274.603 339.151 303.813 318.626 317.399 347.638C317.399 347.638 329.117 374.269 279.902 377.134C279.902 377.134 240.705 380.607 229.497 377.161L236.698 358.388Z" fill="white" stroke="#132C4A" stroke-width="1.32235" stroke-miterlimit="1.5" stroke-linecap="round" stroke-linejoin="round"/>
<path fill-rule="evenodd" clip-rule="evenodd" d="M171.507 136.342C171.507 136.342 163.139 138.876 159.633 125.925C159.633 125.925 157.056 114.17 166.724 113.82C166.724 113.82 169.299 113.626 172.446 116.916" fill="white"/>
<path d="M171.507 136.342C171.507 136.342 163.139 138.876 159.633 125.925C159.633 125.925 157.056 114.17 166.724 113.82C166.724 113.82 169.299 113.626 172.446 116.916" stroke="#132C4A" stroke-width="1.32235" stroke-miterlimit="1.5" stroke-linecap="round" stroke-linejoin="round"/>
<path fill-rule="evenodd" clip-rule="evenodd" d="M236.449 103.378C238.679 104.864 240.291 108.527 241.246 110.862C247.31 125.682 230.606 140.71 215.767 136.783" fill="#132C4A"/>
<path fill-rule="evenodd" clip-rule="evenodd" d="M178.169 103.39C199.14 96.2047 217.806 101.693 236.065 109.426C236.634 116.264 236.037 123.722 234.1 131.295C227.676 156.404 208.928 173.328 192.259 169.065C175.589 164.802 167.271 140.956 173.695 115.847C174.829 111.416 176.347 107.239 178.169 103.39Z" fill="white" stroke="#132C4A" stroke-width="1.32235" stroke-miterlimit="1.5" stroke-linecap="round" stroke-linejoin="round"/>
<path d="M267.634 218.729C267.634 218.729 270.634 214.231 274.516 213.437" stroke="#132C4A" stroke-width="1.32235" stroke-miterlimit="1.5" stroke-linecap="round" stroke-linejoin="round"/>
<path d="M273.739 222.434C273.739 222.434 276.915 218.641 280.974 218.729" stroke="#132C4A" stroke-width="1.32235" stroke-miterlimit="1.5" stroke-linecap="round" stroke-linejoin="round"/>
<path d="M285.399 225.972C285.399 225.972 282.664 225.884 279.841 227.737" stroke="#132C4A" stroke-width="1.32235" stroke-miterlimit="1.5" stroke-linecap="round" stroke-linejoin="round"/>
<path d="M281.364 234.373L283.924 231.55" stroke="#132C4A" stroke-width="1.32235" stroke-miterlimit="1.5" stroke-linecap="round" stroke-linejoin="round"/>
<path d="M261.938 214.771L255.431 225.95" stroke="#132C4A" stroke-width="1.32235" stroke-miterlimit="1.5" stroke-linecap="round" stroke-linejoin="round"/>
<path d="M187.965 252.74L148.642 218.489" stroke="#132C4A" stroke-width="1.32235" stroke-miterlimit="1.5" stroke-linecap="round" stroke-linejoin="round"/>
<path d="M136.435 265.581L155.39 282.465L159.612 278.777" stroke="#132C4A" stroke-width="1.32235" stroke-miterlimit="1.5" stroke-linecap="round" stroke-linejoin="round"/>
<path d="M209.665 227.116L210.768 244.724" stroke="#132C4A" stroke-width="1.32235" stroke-miterlimit="1.5" stroke-linecap="round" stroke-linejoin="round"/>
<path d="M197.458 147.802C197.458 147.802 202.72 157.724 214.103 154.107" stroke="#132C4A" stroke-width="1.32235" stroke-miterlimit="1.5" stroke-linecap="round" stroke-linejoin="round"/>
<path d="M214.468 154.107C215.278 155.166 197.238 171.166 195.935 147.802" stroke="#132C4A" stroke-width="1.32235" stroke-miterlimit="1.5" stroke-linecap="round" stroke-linejoin="round"/>
<path d="M208.138 146.902C209.815 149.522 212.357 150.147 214.665 149.826C216.258 149.613 217.394 148.175 217.232 146.577C216.479 139.525 218.014 136.325 219.968 131.548" stroke="#132C4A" stroke-width="1.32235" stroke-miterlimit="1.5" stroke-linecap="round" stroke-linejoin="round"/>
<path d="M200.509 122.559C200.509 122.559 201.688 121.125 206.906 121.015" stroke="#132C4A" stroke-width="1.32235" stroke-miterlimit="1.5" stroke-linecap="round" stroke-linejoin="round"/>
<path d="M224.919 124.017C224.919 124.017 227.014 124.348 228.228 126.553" stroke="#132C4A" stroke-width="1.32235" stroke-miterlimit="1.5" stroke-linecap="round" stroke-linejoin="round"/>
<path fill-rule="evenodd" clip-rule="evenodd" d="M205.867 126.14C207.152 126.551 207.654 128.578 206.987 130.665C206.32 132.752 204.735 134.113 203.451 133.703C202.166 133.293 201.665 131.265 202.331 129.178C202.998 127.091 204.583 125.73 205.867 126.14Z" fill="#132C4A"/>
<path fill-rule="evenodd" clip-rule="evenodd" d="M116.146 337.608C109.446 355.131 111.415 368.319 118.502 378.95L150.693 379.047C158.308 377.767 165.742 375.49 172.621 370.163C180.874 374.116 189.919 377.08 199.643 379.195L229.906 379.286C229.906 379.286 249.091 368.181 237.311 353.375L198.942 309.63C198.942 309.63 174.846 286.419 146.786 313.331L116.146 337.608Z" fill="#132C4A"/>
<path d="M161.892 347.972C161.892 347.972 159.464 343.231 162.002 332.646" stroke="white" stroke-width="1.32235" stroke-miterlimit="1.5" stroke-linecap="round" stroke-linejoin="round"/>
<path fill-rule="evenodd" clip-rule="evenodd" d="M126.577 379.289C126.577 379.289 120.89 358.154 139.501 361.427C139.501 361.427 141.236 353.457 144.262 347.032C145.796 343.841 149.234 342.026 152.735 342.558C157.516 343.252 164.19 346.384 169.313 357.12C169.313 357.12 173.621 368.378 167.59 379.289" fill="white"/>
<path d="M126.577 379.289C126.577 379.289 120.89 358.154 139.501 361.427C139.501 361.427 141.236 353.457 144.262 347.032C145.796 343.841 149.234 342.026 152.735 342.558C157.516 343.252 164.19 346.384 169.313 357.12C169.313 357.12 173.621 368.378 167.59 379.289" stroke="#132C4A" stroke-width="1.32235" stroke-miterlimit="1.5" stroke-linecap="round" stroke-linejoin="round"/>
<path fill-rule="evenodd" clip-rule="evenodd" d="M225.7 129.715C226.984 130.125 227.486 132.153 226.819 134.24C226.152 136.326 224.568 137.688 223.283 137.277C221.998 136.867 221.496 134.839 222.163 132.752C222.83 130.666 224.415 129.304 225.7 129.715Z" fill="#132C4A"/>
<path d="M331.799 166.148C336.063 166.148 339.52 162.692 339.52 158.429C339.52 154.166 336.063 150.71 331.799 150.71C327.536 150.71 324.079 154.166 324.079 158.429C324.079 162.692 327.536 166.148 331.799 166.148Z" fill="white" stroke="#132C4A" stroke-width="1.32235" stroke-miterlimit="1.5" stroke-linecap="round" stroke-linejoin="round"/>
<path d="M328.657 158.408L331.17 161.578L336.271 155.237" stroke="#132C4A" stroke-width="1.32235" stroke-miterlimit="1.5" stroke-linecap="round" stroke-linejoin="round"/>
<path d="M237.301 353.222C237.301 353.222 212.831 334.96 206.455 319.453C206.455 319.453 195.082 298.479 174.575 300.352" stroke="white" stroke-width="1.32235" stroke-miterlimit="1.5" stroke-linecap="round" stroke-linejoin="round"/>
<path d="M237.849 353.189C237.849 353.189 246.412 363.186 235.599 375.037" stroke="white" stroke-width="1.32235" stroke-miterlimit="1.5" stroke-linecap="round" stroke-linejoin="round"/>
<path d="M229.497 346.39L273.655 318.394" stroke="white" stroke-width="1.32235" stroke-miterlimit="1.5" stroke-linecap="round" stroke-linejoin="round"/>
<path d="M287.466 339.034C287.466 339.034 320.876 341.233 304.885 370.184" stroke="#132C4A" stroke-width="1.32235" stroke-miterlimit="1.5" stroke-linecap="round" stroke-linejoin="round"/>
<path d="M295.968 371.557C295.968 371.557 284.078 362.234 284.422 341.56" stroke="#132C4A" stroke-width="1.32235" stroke-miterlimit="1.5" stroke-linecap="round" stroke-linejoin="round"/>
<path d="M241.278 361.408L270.118 353.189C270.118 353.189 270.081 366.106 273.96 371.531C273.96 371.531 242.436 375.963 235.599 374.861" stroke="#132C4A" stroke-width="1.32235" stroke-miterlimit="1.5" stroke-linecap="round" stroke-linejoin="round"/>
<path d="M273.749 371.563C273.749 371.563 264.068 360.974 262.138 355.907C262.138 355.907 258.968 367.418 261.173 373.297C261.173 373.297 253.179 366.112 251.662 358.669C251.662 358.669 249.896 370.179 252.791 374.128C252.791 374.128 245.457 367.323 244.63 360.569C244.63 360.569 241.816 368.728 244.16 374.627" stroke="#132C4A" stroke-width="1.32235" stroke-miterlimit="1.5" stroke-linecap="round" stroke-linejoin="round"/>
<path d="M136.435 365.559C136.435 365.559 138.751 363.667 139.412 360.864" stroke="#132C4A" stroke-width="1.32235" stroke-miterlimit="1.5" stroke-linecap="round" stroke-linejoin="round"/>
<path d="M145.591 344.977C145.591 344.977 152.429 341.685 151.767 377.064" stroke="#132C4A" stroke-width="1.32235" stroke-miterlimit="1.5" stroke-linecap="round" stroke-linejoin="round"/>
<path d="M141.74 377.068L139.489 365.583" stroke="#132C4A" stroke-width="1.32235" stroke-miterlimit="1.5" stroke-linecap="round" stroke-linejoin="round"/>
<path d="M138.655 377.057C138.791 374.028 138.519 370.591 137.962 366.87" stroke="#132C4A" stroke-width="1.32235" stroke-miterlimit="1.5" stroke-linecap="round" stroke-linejoin="round"/>
<path d="M160.147 379.289C160.147 379.289 163.235 350.911 154.743 342.466" stroke="#132C4A" stroke-width="1.32235" stroke-miterlimit="1.5" stroke-linecap="round" stroke-linejoin="round"/>
<path d="M0.661179 379.31H600.661" stroke="#132C4A" stroke-width="1.32235" stroke-miterlimit="1.5" stroke-linecap="round" stroke-linejoin="round"/>
<path d="M82.1098 365.523C82.1098 365.523 85.8004 357.431 79.3925 354.815C79.3925 354.815 74.9146 353.607 71.8603 354.691C71.8603 354.691 78.3949 360.805 77.1821 361.95C75.9689 363.096 70.3916 354.612 70.3916 354.612C70.3916 354.612 61.4734 356.273 59.0696 358.419C59.0696 358.419 68.2363 362.349 66.7787 363.16C65.3209 363.972 55.5924 360.326 55.5924 360.326C55.5924 360.326 47.9143 364.028 49.7656 368.828C51.6166 373.629 54.8373 374.347 56.0223 373.864C57.2075 373.38 63.5729 368.588 64.0177 369.544C64.4624 370.501 61.1013 375.017 58.1303 376.039C58.1303 376.039 65.6334 380.674 68.8941 377.772C72.1548 374.87 71.6495 371.905 73.697 370.148C75.7448 368.391 77.7587 367.813 77.1019 369.192C76.4454 370.572 72.4851 372.87 71.8241 375.643C71.1635 378.418 70.4176 380.375 74.162 378.658C77.9064 376.94 83.4428 372.242 82.7762 368.882L82.6928 368.461C82.774 368.72 82.7762 368.882 82.7762 368.882C83.633 368.793 85.7557 369.802 87.3198 370.625C87.5686 370.778 87.9322 370.977 88.4432 371.234L88.4438 371.234C88.6696 371.36 88.8521 371.464 88.9767 371.536C92.2247 373.57 95.2441 378.962 95.2441 378.962L96.0766 378.639C93.9555 372.514 88.2444 370.391 88.2444 370.391L88.2441 370.391C84.106 368.421 82.1098 365.523 82.1098 365.523Z" fill="white" stroke="#132C4A" stroke-width="1.32235" stroke-miterlimit="2" stroke-linejoin="round"/>
<path fill-rule="evenodd" clip-rule="evenodd" d="M329.986 78.9971L326.628 68.8617C324.784 63.2962 318.768 60.2745 313.201 62.1181L270.345 76.3116C264.779 78.1553 261.757 84.1705 263.601 89.7359L270.283 109.904C272.127 115.469 278.143 118.491 283.71 116.647L287.291 115.461C287.291 115.461 290.317 118.694 292.232 120.74C292.562 121.093 293.052 121.252 293.527 121.159C294.002 121.067 294.397 120.736 294.571 120.284C295.739 117.251 297.764 111.993 297.764 111.993L326.566 102.454C332.132 100.61 335.154 94.5949 333.31 89.0295" fill="#FF7C52"/>
<path d="M329.986 78.9971L326.628 68.8617C324.784 63.2962 318.768 60.2745 313.201 62.1181L270.345 76.3116C264.779 78.1553 261.757 84.1705 263.601 89.7359L270.283 109.904C272.127 115.469 278.143 118.491 283.71 116.647L287.291 115.461C287.291 115.461 290.317 118.694 292.232 120.74C292.562 121.093 293.052 121.252 293.527 121.159C294.002 121.067 294.397 120.736 294.571 120.284C295.739 117.251 297.764 111.993 297.764 111.993L326.566 102.454C332.132 100.61 335.154 94.5949 333.31 89.0295" stroke="#132C4A" stroke-width="1.32235" stroke-miterlimit="1.5" stroke-linecap="round" stroke-linejoin="round"/>
<path d="M284.348 99.4191L282.329 93.3263C280.249 93.4127 278.581 93.0559 277.327 92.2558C276.078 91.4429 275.194 90.2511 274.673 88.6807C274.147 87.0908 274.204 85.5925 274.846 84.1857C275.495 82.766 276.626 81.6976 278.238 80.9805L277.761 79.5409L279.87 78.8426L280.347 80.2822C281.949 79.9558 283.351 80.078 284.551 80.6487C285.748 81.2097 286.714 82.1755 287.448 83.5461L283.928 85.2445C283.326 84.1745 282.487 83.5916 281.412 83.4958L283.296 89.1816C285.831 89.0411 287.688 89.3353 288.865 90.0641C290.039 90.7833 290.887 91.9281 291.407 93.4986C291.988 95.2533 291.945 96.9083 291.277 98.4636C290.618 100.016 289.389 101.24 287.588 102.138L288.489 104.857L286.381 105.556L285.504 102.909C283.759 103.261 282.19 103.087 280.796 102.387C279.402 101.686 278.243 100.43 277.32 98.6161L280.98 96.9519C281.392 97.6761 281.905 98.2486 282.518 98.6696C283.131 99.0906 283.741 99.3405 284.348 99.4191ZM279.289 84.1506C278.781 84.5339 278.435 85.0144 278.249 85.5921C278.064 86.1698 278.065 86.7398 278.251 87.3021C278.421 87.8159 278.735 88.2444 279.193 88.5876C279.648 88.9211 280.236 89.1192 280.956 89.1819L279.289 84.1506ZM286.524 98.9244C287.206 98.5478 287.686 98.0175 287.965 97.3334C288.241 96.6396 288.259 95.9292 288.018 95.2021C287.802 94.5526 287.424 94.0594 286.882 93.7225C286.346 93.3727 285.601 93.2163 284.645 93.2532L286.524 98.9244Z" fill="#132C4A"/>
<path d="M363.322 272.698L356.265 251.399C348.994 251.701 343.165 250.454 338.778 247.657C334.414 244.815 331.323 240.649 329.504 235.159C327.662 229.601 327.864 224.363 330.108 219.446C332.375 214.483 336.328 210.748 341.966 208.241L340.298 203.209L347.67 200.768L349.337 205.8C354.939 204.659 359.838 205.086 364.034 207.081C368.219 209.042 371.594 212.419 374.159 217.21L361.854 223.147C359.75 219.406 356.818 217.369 353.059 217.034L359.644 236.91C368.508 236.419 374.998 237.447 379.114 239.995C383.219 242.509 386.181 246.511 388 252.001C390.032 258.135 389.88 263.921 387.545 269.357C385.243 274.783 380.945 279.065 374.651 282.202L377.8 291.708L370.429 294.149L367.364 284.898C361.265 286.128 355.779 285.519 350.907 283.071C346.034 280.624 341.983 276.23 338.755 269.891L351.551 264.073C352.991 266.605 354.783 268.606 356.925 270.078C359.068 271.549 361.2 272.423 363.322 272.698ZM345.637 219.323C343.862 220.663 342.651 222.343 342.004 224.362C341.357 226.382 341.359 228.374 342.01 230.34C342.605 232.136 343.703 233.634 345.304 234.834C346.894 235.999 348.948 236.692 351.465 236.911L345.637 219.323ZM370.929 270.968C373.313 269.652 374.993 267.798 375.968 265.407C376.933 262.981 376.994 260.498 376.151 257.956C375.399 255.686 374.076 253.962 372.181 252.784C370.309 251.561 367.702 251.014 364.36 251.143L370.929 270.968Z" fill="#132C4A" fill-opacity="0.11"/>
<path d="M295.095 82.8459L320.744 74.3506" stroke="#132C4A" stroke-width="1.32235" stroke-miterlimit="1.5" stroke-linecap="round" stroke-linejoin="round"/>
<path d="M298.146 88.379L319.921 81.1671" stroke="#132C4A" stroke-width="1.32235" stroke-miterlimit="1.5" stroke-linecap="round" stroke-linejoin="round"/>
<path d="M299.673 93.8208L317.156 88.0303" stroke="#132C4A" stroke-width="1.32235" stroke-miterlimit="1.5" stroke-linecap="round" stroke-linejoin="round"/>
<path d="M301.196 98.6482L309.938 95.753" stroke="#132C4A" stroke-width="1.32235" stroke-miterlimit="1.5" stroke-linecap="round" stroke-linejoin="round"/>
<path d="M353.067 123.876H473.424" stroke="#132C4A" stroke-width="1.32235" stroke-miterlimit="1.5" stroke-linecap="round" stroke-linejoin="round"/>
<path d="M353.067 320.491H473.424" stroke="#132C4A" stroke-width="1.32235" stroke-miterlimit="1.5" stroke-linecap="round" stroke-linejoin="round"/>
<path d="M412.946 111.008C422.426 111.008 430.11 103.325 430.11 93.8473C430.11 84.3697 422.426 76.6866 412.946 76.6866C403.467 76.6866 395.782 84.3697 395.782 93.8473C395.782 103.325 403.467 111.008 412.946 111.008Z" fill="white" stroke="#132C4A" stroke-width="1.32235" stroke-miterlimit="1.5" stroke-linecap="round" stroke-linejoin="round"/>
<path d="M412.429 94.5146C409.029 95.139 406.462 98.0526 406.462 101.591" stroke="#132C4A" stroke-width="1.04012" stroke-miterlimit="10" stroke-linecap="round" stroke-linejoin="round"/>
<path d="M421.512 101.684C421.512 98.1463 418.945 95.2327 415.614 94.6083" stroke="#132C4A" stroke-width="1.04012" stroke-miterlimit="10" stroke-linecap="round" stroke-linejoin="round"/>
<path d="M413.26 92.378C415.329 92.378 417.007 90.7008 417.007 88.6318C417.007 86.5628 415.329 84.8856 413.26 84.8856C411.19 84.8856 409.513 86.5628 409.513 88.6318C409.513 90.7008 411.19 92.378 413.26 92.378Z" stroke="#132C4A" stroke-width="1.04012" stroke-miterlimit="10" stroke-linecap="round" stroke-linejoin="round"/>
<path d="M406.462 101.663C406.462 101.663 412.707 104.301 420.894 101.663" stroke="#132C4A" stroke-width="1.04012" stroke-miterlimit="10" stroke-linecap="round" stroke-linejoin="round"/>
<path d="M414.091 94.4659V97.3101" stroke="#FF7C52" stroke-width="1.04012" stroke-miterlimit="10" stroke-linecap="round" stroke-linejoin="round"/>
<path fill-rule="evenodd" clip-rule="evenodd" d="M370.399 224.956C370.399 224.385 369.936 223.923 369.366 223.923C366.075 223.923 355.864 223.923 352.573 223.923C352.003 223.923 351.54 224.385 351.54 224.956C351.54 227.319 351.54 233.097 351.54 235.46C351.54 236.031 352.003 236.493 352.573 236.493C355.864 236.493 366.075 236.493 369.366 236.493C369.936 236.493 370.399 236.031 370.399 235.46C370.399 233.097 370.399 227.319 370.399 224.956Z" fill="white" stroke="#132C4A" stroke-width="1.32235" stroke-miterlimit="1.5" stroke-linecap="round" stroke-linejoin="round"/>
<path d="M351.54 229.118H370.399" stroke="#132C4A" stroke-width="1.32235" stroke-miterlimit="1.5" stroke-linecap="round" stroke-linejoin="round"/>
<path d="M351.54 227.165H370.399" stroke="#132C4A" stroke-width="1.32235" stroke-miterlimit="1.5" stroke-linecap="round" stroke-linejoin="round"/>
<path d="M351.468 171.564C351.257 171.564 351.065 171.524 350.892 171.444C350.72 171.363 350.583 171.246 350.482 171.094C350.38 170.941 350.33 170.755 350.33 170.538C350.33 170.347 350.367 170.192 350.443 170.073C350.518 169.953 350.619 169.858 350.745 169.79C350.871 169.722 351.01 169.672 351.162 169.638C351.315 169.603 351.47 169.576 351.625 169.556C351.828 169.53 351.992 169.51 352.118 169.497C352.246 169.482 352.338 169.459 352.396 169.425C352.456 169.392 352.485 169.334 352.485 169.251V169.234C352.485 169.02 352.427 168.853 352.309 168.734C352.193 168.615 352.017 168.556 351.781 168.556C351.536 168.556 351.344 168.61 351.205 168.717C351.066 168.824 350.968 168.938 350.912 169.06L350.425 168.886C350.512 168.683 350.628 168.526 350.773 168.413C350.919 168.298 351.079 168.218 351.251 168.174C351.425 168.127 351.596 168.104 351.764 168.104C351.871 168.104 351.994 168.117 352.133 168.143C352.274 168.168 352.409 168.219 352.54 168.297C352.672 168.376 352.781 168.494 352.868 168.652C352.955 168.81 352.998 169.021 352.998 169.286V171.485H352.485V171.033H352.459C352.424 171.106 352.367 171.183 352.285 171.266C352.204 171.349 352.096 171.419 351.962 171.477C351.827 171.535 351.662 171.564 351.468 171.564ZM351.547 171.103C351.749 171.103 351.92 171.063 352.059 170.983C352.2 170.904 352.306 170.801 352.377 170.675C352.449 170.549 352.485 170.416 352.485 170.277V169.808C352.464 169.834 352.416 169.858 352.342 169.879C352.269 169.9 352.185 169.918 352.09 169.934C351.996 169.948 351.904 169.961 351.814 169.973C351.725 169.983 351.654 169.992 351.599 169.999C351.465 170.016 351.341 170.045 351.225 170.084C351.11 170.121 351.018 170.179 350.947 170.255C350.877 170.331 350.842 170.434 350.842 170.564C350.842 170.742 350.908 170.877 351.04 170.968C351.173 171.058 351.342 171.103 351.547 171.103ZM355.195 171.555C354.917 171.555 354.671 171.485 354.458 171.344C354.245 171.202 354.078 171.002 353.958 170.744C353.838 170.485 353.778 170.179 353.778 169.825C353.778 169.475 353.838 169.17 353.958 168.912C354.078 168.655 354.246 168.455 354.46 168.315C354.675 168.174 354.922 168.104 355.203 168.104C355.421 168.104 355.592 168.14 355.718 168.213C355.846 168.284 355.943 168.365 356.01 168.456C356.078 168.546 356.131 168.62 356.168 168.678H356.212V167.035H356.725V171.485H356.229V170.973H356.168C356.131 171.033 356.077 171.11 356.007 171.203C355.938 171.294 355.839 171.376 355.71 171.448C355.581 171.519 355.409 171.555 355.195 171.555ZM355.264 171.094C355.47 171.094 355.644 171.041 355.786 170.933C355.928 170.825 356.036 170.675 356.11 170.484C356.184 170.291 356.22 170.069 356.22 169.816C356.22 169.567 356.184 169.349 356.112 169.162C356.039 168.974 355.932 168.828 355.79 168.723C355.648 168.618 355.473 168.565 355.264 168.565C355.047 168.565 354.866 168.62 354.721 168.732C354.578 168.842 354.47 168.992 354.397 169.182C354.326 169.37 354.291 169.582 354.291 169.816C354.291 170.054 354.327 170.27 354.399 170.464C354.473 170.657 354.582 170.81 354.725 170.925C354.87 171.038 355.05 171.094 355.264 171.094Z" fill="#132C4A"/>
<path d="M373.102 234.424C372.824 234.424 372.578 234.354 372.365 234.213C372.152 234.071 371.986 233.871 371.865 233.614C371.745 233.354 371.685 233.048 371.685 232.694C371.685 232.344 371.745 232.039 371.865 231.782C371.986 231.524 372.153 231.324 372.367 231.184C372.582 231.043 372.83 230.973 373.111 230.973C373.328 230.973 373.5 231.009 373.626 231.082C373.753 231.153 373.85 231.234 373.917 231.325C373.985 231.415 374.038 231.489 374.076 231.547H374.119V229.904H374.632V234.355H374.136V233.842H374.076C374.038 233.903 373.984 233.979 373.915 234.072C373.845 234.163 373.746 234.245 373.617 234.318C373.488 234.389 373.316 234.424 373.102 234.424ZM373.171 233.963C373.377 233.963 373.551 233.91 373.693 233.803C373.835 233.694 373.943 233.544 374.017 233.353C374.091 233.16 374.128 232.938 374.128 232.686C374.128 232.436 374.091 232.218 374.019 232.031C373.947 231.843 373.839 231.697 373.697 231.592C373.555 231.487 373.38 231.434 373.171 231.434C372.954 231.434 372.773 231.49 372.628 231.601C372.485 231.711 372.377 231.861 372.304 232.051C372.233 232.239 372.198 232.451 372.198 232.686C372.198 232.923 372.234 233.139 372.307 233.333C372.38 233.526 372.489 233.679 372.633 233.794C372.777 233.907 372.957 233.963 373.171 233.963Z" fill="#132C4A"/>
<path d="M350.556 139.407V134.957H353.242V135.435H351.095V136.939H353.103V137.417H351.095V138.929H353.276V139.407H350.556ZM354.143 139.407V136.069H354.639V136.591H354.682C354.752 136.413 354.864 136.274 355.019 136.176C355.174 136.076 355.36 136.026 355.578 136.026C355.798 136.026 355.981 136.076 356.128 136.176C356.275 136.274 356.391 136.413 356.473 136.591H356.508C356.593 136.418 356.722 136.282 356.892 136.18C357.063 136.077 357.268 136.026 357.508 136.026C357.806 136.026 358.05 136.119 358.24 136.306C358.43 136.492 358.525 136.781 358.525 137.173V139.407H358.012V137.173C358.012 136.927 357.944 136.751 357.81 136.645C357.675 136.539 357.516 136.487 357.334 136.487C357.099 136.487 356.917 136.558 356.788 136.7C356.659 136.84 356.595 137.018 356.595 137.234V139.407H356.073V137.121C356.073 136.931 356.012 136.778 355.889 136.663C355.765 136.545 355.607 136.487 355.413 136.487C355.279 136.487 355.155 136.522 355.039 136.593C354.924 136.664 354.832 136.763 354.761 136.889C354.691 137.013 354.656 137.157 354.656 137.321V139.407H354.143ZM360.445 139.486C360.233 139.486 360.041 139.446 359.869 139.366C359.696 139.285 359.559 139.168 359.458 139.016C359.356 138.863 359.306 138.677 359.306 138.46C359.306 138.269 359.343 138.114 359.419 137.995C359.494 137.874 359.595 137.78 359.721 137.712C359.847 137.644 359.986 137.593 360.138 137.56C360.292 137.525 360.446 137.498 360.601 137.478C360.804 137.451 360.968 137.432 361.094 137.419C361.222 137.404 361.315 137.38 361.372 137.347C361.432 137.314 361.462 137.256 361.462 137.173V137.156C361.462 136.941 361.403 136.775 361.286 136.656C361.17 136.537 360.994 136.478 360.757 136.478C360.513 136.478 360.321 136.531 360.182 136.639C360.042 136.746 359.945 136.86 359.888 136.982L359.401 136.808C359.488 136.605 359.604 136.447 359.749 136.334C359.895 136.22 360.055 136.14 360.227 136.095C360.401 136.049 360.572 136.026 360.74 136.026C360.847 136.026 360.97 136.039 361.11 136.065C361.25 136.09 361.385 136.141 361.516 136.219C361.648 136.298 361.757 136.416 361.844 136.573C361.931 136.731 361.974 136.943 361.974 137.208V139.407H361.462V138.955H361.435C361.401 139.028 361.343 139.105 361.262 139.188C361.18 139.27 361.073 139.341 360.938 139.399C360.803 139.457 360.639 139.486 360.445 139.486ZM360.523 139.025C360.726 139.025 360.897 138.985 361.036 138.905C361.176 138.826 361.282 138.723 361.353 138.597C361.425 138.471 361.462 138.338 361.462 138.199V137.73C361.44 137.756 361.392 137.78 361.318 137.801C361.246 137.822 361.162 137.84 361.066 137.856C360.972 137.87 360.88 137.883 360.79 137.895C360.702 137.905 360.63 137.914 360.575 137.921C360.442 137.938 360.317 137.966 360.201 138.006C360.087 138.043 359.994 138.1 359.923 138.177C359.853 138.253 359.819 138.355 359.819 138.486C359.819 138.664 359.885 138.799 360.016 138.89C360.15 138.98 360.318 139.025 360.523 139.025ZM362.91 139.407V136.069H363.423V139.407H362.91ZM363.171 135.513C363.071 135.513 362.985 135.479 362.913 135.411C362.842 135.343 362.806 135.261 362.806 135.165C362.806 135.07 362.842 134.988 362.913 134.92C362.985 134.852 363.071 134.818 363.171 134.818C363.271 134.818 363.357 134.852 363.428 134.92C363.5 134.988 363.536 135.07 363.536 135.165C363.536 135.261 363.5 135.343 363.428 135.411C363.357 135.479 363.271 135.513 363.171 135.513ZM364.876 134.957V139.407H364.363V134.957H364.876Z" fill="#132C4A"/>
<path d="M299.673 144.323H322.735" stroke="#132C4A" stroke-width="1.32235" stroke-miterlimit="1.5" stroke-linecap="round" stroke-linejoin="round"/>
<path d="M299.673 148.374H322.735" stroke="#132C4A" stroke-width="1.32235" stroke-miterlimit="1.5" stroke-linecap="round" stroke-linejoin="round"/>
<path d="M299.673 152.567H322.735" stroke="#132C4A" stroke-width="1.32235" stroke-miterlimit="1.5" stroke-linecap="round" stroke-linejoin="round"/>
<path d="M299.673 156.669H311.204" stroke="#132C4A" stroke-width="1.32235" stroke-miterlimit="1.5" stroke-linecap="round" stroke-linejoin="round"/>
<path d="M299.673 164.579H311.204" stroke="#132C4A" stroke-width="1.32235" stroke-miterlimit="1.5" stroke-linecap="round" stroke-linejoin="round"/>
<path d="M317.978 160.767H323.743" stroke="#132C4A" stroke-width="1.32235" stroke-miterlimit="1.5" stroke-linecap="round" stroke-linejoin="round"/>
<path d="M391.204 236.315H407.527" stroke="#132C4A" stroke-width="1.32235" stroke-miterlimit="1.5" stroke-linecap="round" stroke-linejoin="round"/>
<path d="M354.591 262.722H396.968" stroke="#132C4A" stroke-width="1.32235" stroke-miterlimit="1.5" stroke-linecap="round" stroke-linejoin="round"/>
<path d="M426.294 277.163H468.672" stroke="#132C4A" stroke-width="1.32235" stroke-miterlimit="1.5" stroke-linecap="round" stroke-linejoin="round"/>
<path d="M354.591 267.536H390.627" stroke="#132C4A" stroke-width="1.32235" stroke-miterlimit="1.5" stroke-linecap="round" stroke-linejoin="round"/>
<path d="M426.294 272.351H462.33" stroke="#132C4A" stroke-width="1.32235" stroke-miterlimit="1.5" stroke-linecap="round" stroke-linejoin="round"/>
<path d="M354.591 271.921H396.968" stroke="#132C4A" stroke-width="1.32235" stroke-miterlimit="1.5" stroke-linecap="round" stroke-linejoin="round"/>
<path d="M426.294 267.917H468.672" stroke="#132C4A" stroke-width="1.32235" stroke-miterlimit="1.5" stroke-linecap="round" stroke-linejoin="round"/>
<path d="M354.591 277.163H384.147" stroke="#132C4A" stroke-width="1.32235" stroke-miterlimit="1.5" stroke-linecap="round" stroke-linejoin="round"/>
<path d="M426.294 262.722H455.851" stroke="#132C4A" stroke-width="1.32235" stroke-miterlimit="1.5" stroke-linecap="round" stroke-linejoin="round"/>
<path d="M526.69 323.614C526.69 323.614 517.437 312.822 526.119 305.966C526.119 305.966 532.461 302.127 537.633 302.439C537.633 302.439 530.305 314.724 532.676 315.946C535.046 317.167 539.853 301.668 539.853 301.668C539.853 301.668 554.285 300.269 558.928 302.501C558.928 302.501 546.59 312.595 549.189 313.196C551.787 313.797 565.113 303.889 565.113 303.889C565.113 303.889 578.546 306.175 577.829 314.367C577.113 322.56 572.485 325.089 570.451 324.872C568.416 324.654 556.517 320.112 556.258 321.779C555.999 323.445 563.162 328.891 568.177 329.146C568.177 329.146 558.707 339.587 552.413 336.574C546.12 333.561 545.583 328.784 541.659 326.992C537.736 325.2 534.387 325.205 536.007 327.032C537.626 328.859 544.727 330.635 546.971 334.603C549.214 338.571 551.227 341.247 544.715 340.268C538.204 339.288 527.619 334.524 527.155 329.069L526.69 323.614Z" fill="white" stroke="#132C4A" stroke-width="1.32235" stroke-miterlimit="2" stroke-linejoin="round"/>
<path d="M570.488 314.549C570.488 314.549 534.005 313.143 525.948 323.575C525.948 323.575 524.167 328.91 518.684 333.769L517.829 336.097C517.829 336.097 524.151 329.433 526.413 329.029C526.413 329.029 522.875 316.106 570.488 314.549Z" fill="white"/>
<path d="M570.488 314.549C570.488 314.549 534.005 313.143 525.948 323.575C525.948 323.575 524.167 328.91 518.684 333.769L517.829 336.097C517.829 336.097 524.151 329.433 526.413 329.029C526.413 329.029 522.875 316.106 570.488 314.549" stroke="#132C4A" stroke-width="1.32235" stroke-miterlimit="2" stroke-linejoin="round"/>
<path d="M518.575 333.802C518.575 333.802 510.744 339.592 510.2 349.938L511.621 350.065C511.621 350.065 514.123 339.367 518.643 335.184C523.164 331.001 518.575 333.802 518.575 333.802Z" fill="white" stroke="#132C4A" stroke-width="1.32235" stroke-miterlimit="2" stroke-linejoin="round"/>
<path d="M494.014 310.032C494.014 310.032 508.733 301.791 501.864 290.606C501.864 290.606 496.369 283.739 490.481 281.973C490.481 281.973 493.621 298.651 490.481 299.044C487.341 299.436 488.322 280.207 488.322 280.207C488.322 280.207 472.819 272.751 466.734 273.339C466.734 273.339 476.351 289.625 473.211 289.233C470.071 288.84 459.277 272.358 459.277 272.358C459.277 272.358 443.38 269.415 440.829 278.833C438.278 288.252 442.399 292.961 444.754 293.549C447.109 294.138 462.221 293.942 461.828 295.904C461.436 297.866 451.23 301.005 445.539 299.24C445.539 299.24 451.819 314.74 460.062 313.956C468.304 313.171 470.856 308.069 475.958 307.677C481.061 307.284 484.79 308.658 482.239 310.032C479.687 311.405 471.052 310.482 466.931 313.985C462.81 317.488 459.473 319.646 467.127 321.216C474.781 322.785 488.519 321.805 491.266 315.918L494.014 310.032Z" fill="white" stroke="#132C4A" stroke-width="1.32235" stroke-miterlimit="2" stroke-linejoin="round"/>
<path d="M447.653 281.788C447.653 281.788 488.866 295.131 493.576 310.043C493.576 310.043 493.38 316.714 497.501 324.367V327.31C497.501 327.31 493.184 317.303 490.829 315.929C490.829 315.929 500.053 302.979 447.653 281.788Z" fill="white" stroke="#132C4A" stroke-width="1.32235" stroke-miterlimit="2" stroke-linejoin="round"/>
<path d="M498.439 324.325C498.439 324.325 504.795 333.975 501.171 345.721L499.536 345.282C499.536 345.282 501.123 332.344 497.798 325.837C494.473 319.33 498.439 324.325 498.439 324.325Z" fill="white"/>
<path d="M498.439 324.325C498.439 324.325 504.795 333.975 501.171 345.721L499.536 345.282C499.536 345.282 501.123 332.344 497.798 325.837C494.473 319.33 498.439 324.325 498.439 324.325" stroke="#132C4A" stroke-width="1.32235" stroke-miterlimit="2" stroke-linejoin="round"/>
<path d="M516.854 298.657C516.854 298.657 497.452 287.794 506.506 273.051C506.506 273.051 513.75 263.999 521.511 261.671C521.511 261.671 517.372 283.656 521.511 284.173C525.65 284.69 524.356 259.343 524.356 259.343C524.356 259.343 544.793 249.514 552.813 250.29C552.813 250.29 540.137 271.758 544.276 271.241C548.415 270.723 562.643 248.997 562.643 248.997C562.643 248.997 583.598 245.117 586.961 257.532C590.324 269.947 584.891 276.155 581.787 276.931C578.683 277.706 558.763 277.448 559.28 280.034C559.798 282.621 573.25 286.759 580.752 284.431C580.752 284.431 572.474 304.865 561.609 303.83C550.743 302.796 547.38 296.071 540.654 295.553C533.928 295.036 529.013 296.846 532.376 298.657C535.739 300.468 547.121 299.25 552.554 303.868C557.987 308.486 562.385 311.331 552.296 313.4C542.207 315.469 524.098 314.176 520.476 306.416L520.022 305.444C520.241 306.086 520.476 306.416 520.476 306.416C518.616 307.501 515.827 312.672 513.89 316.643C513.614 317.319 513.175 318.259 512.525 319.531L512.524 319.533C512.255 320.12 512.041 320.599 511.895 320.928C508.353 329.83 510.234 345.163 510.234 345.163L508.079 345.742C503.302 330.258 511.68 317.538 511.68 317.538L511.68 317.538C517.113 307.451 516.854 298.657 516.854 298.657Z" fill="white" stroke="#132C4A" stroke-width="1.32235" stroke-miterlimit="2" stroke-linejoin="round"/>
<path d="M516.171 379.32C537.161 379.32 554.177 362.307 554.177 341.321H478.165C478.165 362.307 495.181 379.32 516.171 379.32Z" fill="white" stroke="#132C4A" stroke-width="1.32235" stroke-miterlimit="2" stroke-linejoin="round"/>
<path d="M556.291 341.083H478.165V344.437H556.291V341.083Z" fill="white" stroke="#132C4A" stroke-width="1.32235" stroke-miterlimit="2" stroke-linejoin="round"/>
<path d="M411.04 236.315H427.362" stroke="#132C4A" stroke-width="1.32235" stroke-miterlimit="1.5" stroke-linecap="round" stroke-linejoin="round"/>
<path d="M432.396 236.315H448.718" stroke="#132C4A" stroke-width="1.32235" stroke-miterlimit="1.5" stroke-linecap="round" stroke-linejoin="round"/>
<path d="M453.755 236.315H470.077" stroke="#132C4A" stroke-width="1.32235" stroke-miterlimit="1.5" stroke-linecap="round" stroke-linejoin="round"/>
<path fill-rule="evenodd" clip-rule="evenodd" d="M262.5 143.472C262.514 142.821 262.984 142.269 263.624 142.152C264.265 142.036 264.9 142.385 265.142 142.99C265.865 144.792 266.561 146.524 266.938 147.464C267.118 147.912 267.521 148.232 267.998 148.307C268.909 148.449 270.529 148.702 272.314 148.98C272.978 149.084 273.47 149.655 273.473 150.327C273.476 151 272.99 151.576 272.327 151.686C271.073 151.894 269.94 152.082 269.151 152.212C268.501 152.32 268.019 152.876 268.006 153.535C267.987 154.42 267.96 155.726 267.931 157.113C267.917 157.764 267.447 158.316 266.807 158.433C266.166 158.55 265.531 158.2 265.289 157.595C264.565 155.793 263.87 154.061 263.493 153.122C263.313 152.673 262.91 152.353 262.433 152.278C261.522 152.136 259.902 151.884 258.117 151.605C257.453 151.501 256.961 150.931 256.958 150.258C256.955 149.585 257.441 149.01 258.104 148.9C259.358 148.692 260.492 148.504 261.279 148.373C261.93 148.265 262.412 147.709 262.425 147.05C262.444 146.166 262.471 144.859 262.5 143.472Z" fill="white" stroke="#132C4A" stroke-width="1.32235" stroke-miterlimit="1.5" stroke-linecap="round" stroke-linejoin="round"/>
<path fill-rule="evenodd" clip-rule="evenodd" d="M144.682 128.165C144.926 127.562 145.561 127.213 146.201 127.33C146.842 127.449 147.311 128.001 147.323 128.652C147.353 130.213 147.38 131.69 147.398 132.625C147.409 133.226 147.811 133.75 148.389 133.916C149.216 134.154 150.491 134.52 151.893 134.924C152.538 135.109 152.953 135.733 152.876 136.399C152.798 137.065 152.25 137.577 151.58 137.609C149.921 137.689 148.409 137.762 147.504 137.806C146.97 137.831 146.5 138.166 146.299 138.662C145.932 139.573 145.3 141.137 144.638 142.778C144.394 143.382 143.759 143.73 143.118 143.613C142.478 143.494 142.009 142.942 141.997 142.291C141.967 140.73 141.939 139.253 141.922 138.318C141.911 137.717 141.509 137.193 140.93 137.027C140.103 136.789 138.829 136.423 137.426 136.019C136.782 135.834 136.366 135.21 136.444 134.544C136.522 133.878 137.07 133.366 137.739 133.334C139.399 133.254 140.91 133.181 141.815 133.137C142.35 133.112 142.82 132.777 143.02 132.281C143.388 131.37 144.02 129.806 144.682 128.165Z" fill="white" stroke="#132C4A" stroke-width="1.32235" stroke-miterlimit="1.5" stroke-linecap="round" stroke-linejoin="round"/>
<path fill-rule="evenodd" clip-rule="evenodd" d="M76.0456 66.1554C76.0611 65.5047 76.5325 64.9545 77.1735 64.8391C77.8144 64.7241 78.4478 65.0759 78.689 65.6809C78.903 66.2181 79.0926 66.6942 79.2371 67.0564C79.4166 67.5065 79.8201 67.8285 80.2991 67.9033C80.5216 67.9382 80.7854 67.979 81.0799 68.025C81.7345 68.1274 82.2182 68.6896 82.2214 69.352C82.2246 70.0148 81.7462 70.5814 81.0922 70.6898C81.0916 70.6901 81.0906 70.6901 81.0897 70.6901C80.5166 70.7852 80.0921 71.2743 80.0782 71.8549C80.0737 72.0441 80.069 72.2546 80.0636 72.4812C80.048 73.1322 79.5767 73.6824 78.9357 73.7974C78.2947 73.9125 77.661 73.5607 77.4201 72.956C77.2061 72.4187 77.0162 71.9427 76.872 71.5801C76.6926 71.1301 76.2887 70.808 75.81 70.7336C75.5872 70.6987 75.3238 70.6575 75.0293 70.6115C74.3744 70.5095 73.8906 69.9472 73.8878 69.2845C73.8846 68.6221 74.3629 68.0551 75.0166 67.9467C75.0175 67.9467 75.0185 67.9467 75.0191 67.9464C75.5923 67.8513 76.0171 67.3626 76.0307 66.782C76.0351 66.5928 76.0402 66.3823 76.0456 66.1554Z" fill="white" stroke="#132C4A" stroke-width="1.32235" stroke-miterlimit="1.5" stroke-linecap="round" stroke-linejoin="round"/>
<path fill-rule="evenodd" clip-rule="evenodd" d="M343.681 181.825C343.725 181.176 344.219 180.648 344.863 180.561C345.507 180.473 346.124 180.849 346.34 181.461C346.967 183.232 347.569 184.935 347.904 185.882C348.072 186.357 348.486 186.701 348.984 186.779C349.884 186.921 351.441 187.165 353.16 187.436C353.824 187.54 354.315 188.111 354.317 188.784C354.32 189.457 353.834 190.032 353.17 190.141C351.85 190.359 350.656 190.555 349.847 190.688C349.22 190.791 348.746 191.312 348.703 191.946C348.641 192.854 348.546 194.233 348.446 195.692C348.402 196.34 347.908 196.868 347.264 196.956C346.62 197.044 346.003 196.668 345.787 196.055C345.161 194.285 344.558 192.582 344.223 191.634C344.055 191.16 343.641 190.815 343.144 190.737C342.243 190.596 340.686 190.351 338.967 190.081C338.303 189.976 337.812 189.405 337.81 188.732C337.807 188.059 338.294 187.485 338.957 187.375C340.278 187.158 341.471 186.962 342.28 186.828C342.907 186.725 343.381 186.204 343.424 185.57C343.487 184.662 343.581 183.283 343.681 181.825Z" fill="white" stroke="#132C4A" stroke-width="1.32235" stroke-miterlimit="1.5" stroke-linecap="round" stroke-linejoin="round"/>
<path fill-rule="evenodd" clip-rule="evenodd" d="M502.341 81.8714C502.386 81.2233 502.879 80.6956 503.523 80.6074C504.167 80.5197 504.784 80.8959 505.001 81.5082C505.627 83.2786 506.229 84.9815 506.564 85.9295C506.732 86.4036 507.146 86.7481 507.644 86.8261C508.544 86.9675 510.101 87.2125 511.82 87.4825C512.485 87.5871 512.975 88.1585 512.978 88.8311C512.98 89.5039 512.494 90.0789 511.83 90.1882C510.51 90.4053 509.316 90.6018 508.508 90.7349C507.881 90.8379 507.406 91.359 507.363 91.9932C507.301 92.9012 507.206 94.2805 507.106 95.7388C507.062 96.3869 506.568 96.9149 505.924 97.0027C505.281 97.0908 504.664 96.7146 504.447 96.102C503.821 94.3315 503.218 92.6286 502.883 91.681C502.715 91.2065 502.301 90.8623 501.804 90.7841C500.904 90.6427 499.347 90.398 497.628 90.1277C496.963 90.0234 496.472 89.452 496.47 88.7791C496.467 88.1062 496.954 87.5313 497.618 87.422C498.938 87.2049 500.131 87.0087 500.94 86.8756C501.567 86.7722 502.041 86.2512 502.085 85.617C502.147 84.7093 502.241 83.33 502.341 81.8714Z" fill="white" stroke="#132C4A" stroke-width="1.32235" stroke-miterlimit="1.5" stroke-linecap="round" stroke-linejoin="round"/>
<path fill-rule="evenodd" clip-rule="evenodd" d="M358.918 100.545C359.329 100.042 360.037 99.897 360.613 100.198C361.189 100.498 361.475 101.162 361.297 101.787C361.008 102.803 360.748 103.72 360.573 104.333C360.435 104.817 360.574 105.338 360.935 105.689C361.285 106.03 361.77 106.503 362.326 107.045C362.807 107.515 362.877 108.265 362.489 108.815C362.102 109.365 361.373 109.553 360.768 109.257C360.369 109.063 360.008 108.887 359.706 108.74C359.134 108.461 358.446 108.612 358.044 109.104C357.729 109.488 357.329 109.978 356.889 110.516C356.478 111.019 355.77 111.165 355.194 110.864C354.617 110.563 354.332 109.899 354.51 109.274C354.798 108.259 355.059 107.342 355.234 106.728C355.371 106.244 355.232 105.724 354.872 105.373C354.522 105.031 354.037 104.559 353.481 104.017C352.999 103.547 352.93 102.797 353.317 102.247C353.704 101.697 354.434 101.509 355.039 101.804C355.438 101.999 355.798 102.174 356.101 102.322C356.672 102.6 357.36 102.45 357.763 101.957C358.077 101.573 358.477 101.083 358.918 100.545Z" fill="white" stroke="#132C4A" stroke-width="1.32235" stroke-miterlimit="1.5" stroke-linecap="round" stroke-linejoin="round"/>
<path d="M420.357 40.6195C414.63 37.4298 417.29 29.7909 422.585 28.0804C429.384 25.8843 435.486 33.668 428.816 35.7424C424.583 37.0593 422.581 31.2457 422.074 28.2395C420.738 20.3322 422.453 12.59 428.532 6.9922C438.065 -1.78639 456.162 -2.36576 461.722 11.1986" stroke="#132C4A" stroke-width="1.32235" stroke-miterlimit="1.5" stroke-linecap="round" stroke-linejoin="round"/>
<path d="M315.052 207.222C314.816 207.104 314.98 205.951 315.012 205.78C315.275 204.384 316.069 203.037 317.246 202.226C321 199.639 327.04 200.55 329.635 204.32C330.391 205.417 330.916 206.692 331.195 207.992C331.417 209.025 331.48 210.113 331.298 211.157C331.152 211.989 330.844 212.808 330.38 213.516C328.592 216.248 324.732 215.517 323.49 212.661C322.887 211.274 323.235 209.187 324.881 208.707C326.901 208.118 328.857 209.855 329.709 211.51C331.314 214.625 330.303 218.42 328.234 221.068" stroke="#132C4A" stroke-width="1.32235" stroke-miterlimit="1.5" stroke-linecap="round" stroke-linejoin="round"/>
<path d="M292.406 156.979C289.747 155.65 285.353 151.431 281.999 153.512C279.258 155.213 280.223 162.121 284.004 161.501C285.746 161.216 286.832 158.958 287.185 157.441C288.36 152.4 283.379 144.792 278.446 150.172C277.647 151.044 277.154 152.143 276.79 153.255" stroke="#132C4A" stroke-width="1.32235" stroke-miterlimit="1.5" stroke-linecap="round" stroke-linejoin="round"/>
<path d="M136.549 177.396C136.028 176.096 137.417 174.23 138.111 173.283C139.895 170.846 142.8 168.416 146.036 169.285C149.392 170.187 151.45 174.977 148.561 177.53C145.761 180.004 142.774 176.333 142.046 173.8C140.561 168.633 143.039 162.636 148.463 161.148" stroke="#132C4A" stroke-width="1.32235" stroke-miterlimit="1.5" stroke-linecap="round" stroke-linejoin="round"/>
<path fill-rule="evenodd" clip-rule="evenodd" d="M163.381 113.859C163.381 113.859 164.516 109.83 162.818 101.027C160.185 87.3781 169.739 81.8056 177.726 82.1654C176.213 79.37 176.282 77.243 178.131 74.9636C176.919 78.0743 177.021 80.226 181.255 81.9201C179.43 81.0079 182.499 68.736 191.398 69.6726C197.083 70.271 204.529 76.2228 210.507 75.6535C224.514 74.3199 227.362 67.281 241.755 69.483C261.4 72.4883 266.175 103.801 245.414 113.685C230.344 120.86 211.401 111.374 195.884 103.418C195.884 109.719 182.796 118.837 178.447 116.568C176.864 119.733 175.646 123.557 175.122 127.013C173.574 126.106 172.985 126.687 173.275 123.192C174.295 110.872 163.381 113.859 163.381 113.859Z" fill="#132C4A"/>
<path fill-rule="evenodd" clip-rule="evenodd" d="M217.29 115.971C220.258 116.037 223.303 116.211 226.377 116.335C230.936 116.519 235.552 116.608 240.057 116.137C243.127 115.816 246.143 115.233 249.052 114.25C250.982 113.597 252.86 112.761 254.679 111.717C256.211 110.827 257.55 109.83 258.699 108.737C259.966 107.531 261.008 106.214 261.837 104.814C264.408 100.471 264.974 95.3536 264.026 90.3076C263.433 87.1471 262.243 84.0144 260.591 81.1173C258.15 76.8345 254.7 73.0705 250.686 70.4913C254.556 73.2055 257.815 77.0693 260.072 81.4003C261.574 84.2819 262.623 87.3702 263.111 90.4654C263.866 95.2674 263.238 100.079 260.738 104.152C259.946 105.442 258.969 106.659 257.789 107.781C256.709 108.808 255.463 109.76 254.029 110.607C252.298 111.64 250.502 112.466 248.66 113.135C245.848 114.158 242.926 114.807 239.945 115.218C235.492 115.833 230.913 115.923 226.385 115.928C223.308 115.932 220.259 115.905 217.29 115.971Z" fill="#132C4A"/>
<path fill-rule="evenodd" clip-rule="evenodd" d="M181.547 83.2624C180.423 79.5393 180.924 74.8575 182.834 71.2643C183.809 69.4299 185.155 67.8892 186.855 66.9273C188.44 66.0301 190.335 65.6494 192.526 66.0351C194.809 66.4161 196.772 67.3184 198.586 68.4331C199.855 69.2124 201.051 70.098 202.221 71.0095C205.334 73.4344 208.26 76.0406 211.772 77.3134C214.531 78.3137 217.652 78.4953 221.506 77.1112C222.569 76.728 223.566 76.2507 224.512 75.6824C225.452 75.117 226.338 74.4638 227.187 73.7326C226.301 74.4093 225.382 75.0048 224.417 75.5142C223.457 76.0206 222.454 76.4399 221.39 76.7607C217.642 77.8979 214.675 77.5866 212.081 76.5144C210.386 75.8137 208.854 74.7861 207.366 73.6309C205.902 72.494 204.486 71.2301 203.009 70.0238C201.819 69.0518 200.592 68.1133 199.277 67.3076C197.324 66.1109 195.179 65.2063 192.718 64.8339C188.657 64.2653 185.54 65.9461 183.496 68.7291C180.617 72.6503 179.898 78.7463 181.547 83.2624Z" fill="#132C4A"/>
<path fill-rule="evenodd" clip-rule="evenodd" d="M240.808 113.296C241.299 113.344 241.672 113.8 241.976 114.422C242.595 115.687 242.881 117.623 242.966 118.274C243.037 118.736 243.066 119.181 243.079 119.612C243.099 120.304 243.038 120.954 242.924 121.576C242.845 122.011 242.739 122.431 242.607 122.839C242.402 123.471 242.14 124.074 241.812 124.653C241.264 125.623 240.568 126.524 239.749 127.375C238.952 128.204 238.074 128.985 237.122 129.723C238.702 128.883 240.177 127.949 241.383 126.807C242.271 125.966 242.997 125.019 243.526 123.965C243.671 123.676 243.796 123.376 243.902 123.067C244.059 122.612 244.173 122.136 244.24 121.642C244.318 121.06 244.333 120.454 244.277 119.824C244.226 119.255 244.117 118.67 243.951 118.063C243.753 117.404 243.143 115.436 242.268 114.245C241.828 113.646 241.335 113.245 240.808 113.296Z" fill="#132C4A"/>
<path fill-rule="evenodd" clip-rule="evenodd" d="M160.366 111.045C159.695 109.526 159.234 107.922 158.951 106.277C158.534 103.854 158.54 101.353 158.904 98.9127C159.146 97.2919 159.549 95.704 160.104 94.1856C160.477 93.1641 160.92 92.1768 161.424 91.2314C161.933 90.2729 162.504 89.3576 163.146 88.5044C164.124 87.205 165.255 86.0447 166.554 85.0859C167.841 84.136 169.278 83.3773 170.873 82.8651C173.053 82.165 175.507 81.9114 178.237 82.2531C175.493 81.6731 172.974 81.7169 170.704 82.2588C168.985 82.6689 167.414 83.3649 165.998 84.2828C164.55 85.2212 163.268 86.3936 162.171 87.7412C161.45 88.6261 160.809 89.5877 160.26 90.6099C159.722 91.6123 159.273 92.6738 158.911 93.7713C158.379 95.3845 158.034 97.077 157.882 98.792C157.769 100.064 157.764 101.346 157.87 102.619C158.115 105.579 158.941 108.472 160.366 111.045Z" fill="#132C4A"/>
<path fill-rule="evenodd" clip-rule="evenodd" d="M178.456 374.274C180.808 373.376 182.341 371.736 182.822 369.937C183.338 368.009 182.64 365.923 180.503 364.401C178.901 363.258 176.87 362.574 174.737 362.252C172.646 361.936 170.46 361.968 168.474 362.271C170.458 361.878 172.656 361.749 174.773 361.977C176.986 362.216 179.105 362.848 180.805 363.96C183.281 365.582 184.101 367.935 183.597 370.129C183.141 372.117 181.575 373.988 179.097 375.107C179.96 376.232 180.821 377.342 181.782 378.314C182.788 379.333 183.901 380.203 185.253 380.76C190.408 382.898 194.647 383.78 198.71 383.557C203.014 383.321 207.119 381.854 211.889 379.312C207.176 382.069 203.088 383.716 198.75 384.112C194.6 384.491 190.228 383.723 184.878 381.708C183.373 381.135 182.115 380.22 180.981 379.125C179.868 378.051 178.875 376.803 177.872 375.548C176.325 375.955 174.819 375.797 173.503 375.272C171.74 374.569 170.321 373.194 169.572 371.625C169.361 371.182 168.881 369.94 168.837 368.973C168.806 368.305 169 367.755 169.382 367.446C169.497 367.354 169.64 367.304 169.787 367.304C170.586 367.301 171.433 367.653 172.228 368.167C173.291 368.856 174.265 369.83 174.893 370.357C175.985 371.284 176.942 372.366 177.845 373.496C178.052 373.753 178.255 374.013 178.456 374.274ZM170.126 368.636C170.124 368.683 170.125 368.734 170.123 368.786C170.116 369.014 170.15 369.271 170.201 369.528C170.331 370.174 170.576 370.821 170.702 371.098C171.305 372.424 172.479 373.587 173.941 374.208C174.904 374.618 175.993 374.795 177.131 374.627C177.041 374.516 176.951 374.406 176.86 374.296C175.992 373.244 175.088 372.226 174.049 371.363C173.45 370.86 172.523 369.929 171.511 369.269C171.057 368.972 170.588 368.724 170.126 368.636Z" fill="#132C4A"/>
<path fill-rule="evenodd" clip-rule="evenodd" d="M202.507 127.021C203.437 127.021 204.063 127.884 203.904 128.948C203.745 130.011 202.861 130.875 201.931 130.875C201.001 130.875 200.375 130.011 200.533 128.948C200.693 127.884 201.577 127.021 202.507 127.021Z" fill="white"/>
<path fill-rule="evenodd" clip-rule="evenodd" d="M223.866 130.31C224.796 130.31 225.422 131.173 225.263 132.237C225.104 133.3 224.22 134.164 223.29 134.164C222.36 134.164 221.734 133.3 221.893 132.237C222.052 131.173 222.936 130.31 223.866 130.31Z" fill="white"/>
<path d="M116.603 337.684L151.092 309.624" stroke="white" stroke-width="1.32235" stroke-miterlimit="1.5" stroke-linecap="round" stroke-linejoin="round"/>
<path fill-rule="evenodd" clip-rule="evenodd" d="M285.833 196.706C285.553 199.033 290.642 202.016 297.354 203.424C303.953 204.808 309.726 204.168 310.566 202.015L309.248 206.869C309.243 206.902 309.238 206.934 309.231 206.966C309.212 207.056 309.185 207.144 309.15 207.229L309.143 207.256L309.14 207.255C308.235 209.37 302.498 209.99 295.948 208.616C289.108 207.182 283.956 204.113 284.448 201.768C284.46 201.708 284.476 201.649 284.496 201.591L285.833 196.706ZM310.67 201.63L310.651 201.7C310.655 201.676 310.658 201.651 310.661 201.626L310.67 201.63Z" fill="#132C4A"/>
</svg>
