<svg width="21" height="16" viewBox="0 0 21 16" fill="none" xmlns="http://www.w3.org/2000/svg">
<path d="M10.5 0C5.80683 0 1.6014 2.98606 0.0350939 7.43067C-0.011698 7.56428 -0.011698 7.70845 0.0350939 7.84206C1.6014 12.2867 5.80683 15.2727 10.5 15.2727C15.1932 15.2727 19.3986 12.2867 20.9649 7.84206C21.0117 7.70845 21.0117 7.56428 20.9649 7.43067C19.3986 2.98606 15.1931 0 10.5 0ZM10.5 14C6.4407 14 2.79215 11.4514 1.35209 7.63636C2.79215 3.82129 6.44066 1.27274 10.5 1.27274C14.5593 1.27274 18.2078 3.82129 19.6479 7.63636C18.2078 11.4514 14.5593 14 10.5 14Z" fill="#0054FD"/>
<path d="M10.5079 3.81836C8.33659 3.81836 6.57031 5.53109 6.57031 7.63655C6.57031 9.74201 8.33659 11.4547 10.5079 11.4547C12.6792 11.4547 14.4455 9.74205 14.4455 7.63655C14.4455 5.53105 12.6792 3.81836 10.5079 3.81836ZM10.5079 10.182C9.06012 10.182 7.88285 9.04039 7.88285 7.63655C7.88285 6.23268 9.06015 5.0911 10.5079 5.0911C11.9557 5.0911 13.1329 6.23271 13.1329 7.63655C13.1329 9.04039 11.9556 10.182 10.5079 10.182Z" fill="#0054FD"/>
</svg>
