<svg width="46" height="46" viewBox="0 0 46 46" fill="none" xmlns="http://www.w3.org/2000/svg">
<path d="M21.1133 29.8281C20.5742 30.3672 19.5859 30.3672 19.0469 29.8281L13.2969 24.0781C12.7578 23.5391 12.7578 22.5508 13.2969 22.0117C13.8359 21.4727 14.8242 21.4727 15.3633 22.0117L20.125 26.7734L30.5469 16.2617C31.0859 15.7227 32.0742 15.7227 32.6133 16.2617C33.1523 16.8008 33.1523 17.7891 32.6133 18.3281L21.1133 29.8281ZM46 23C46 35.7578 35.668 46 23 46C10.2422 46 0 35.7578 0 23C0 10.332 10.2422 0 23 0C35.668 0 46 10.332 46 23ZM23 2.875C11.8594 2.875 2.875 11.9492 2.875 23C2.875 34.1406 11.8594 43.125 23 43.125C34.0508 43.125 43.125 34.1406 43.125 23C43.125 11.9492 34.0508 2.875 23 2.875Z" fill="#4B59D5"/>
</svg>
